# MagicaVoxel @ Ephtracy

# group
o 

# material
mtllib 1x1x1.mtl
usemtl palette

# normals
vn -1 0 0
vn 1 0 0
vn 0 0 1
vn 0 0 -1
vn 0 -1 0
vn 0 1 0

# texcoords
vt 0.841797 0.5
vt 0.892578 0.5
vt 0.986328 0.5

# verts
v -0.5 0 0.5
v -0.5 0 0.1
v -0.5 0 0
v -0.5 0 -0.1
v -0.5 0 -0.2
v -0.5 0 -0.3
v -0.5 0 -0.4
v -0.5 0 -0.5
v -0.5 0.1 0.1
v -0.5 0.1 0
v -0.5 0.1 -0.1
v -0.5 0.1 -0.2
v -0.5 0.1 -0.3
v -0.5 0.2 -0.2
v -0.5 0.2 -0.4
v -0.5 0.4 0.5
v -0.5 0.4 0.3
v -0.5 0.4 0.2
v -0.5 0.4 0.1
v -0.5 0.4 0
v -0.5 0.4 -0.1
v -0.5 0.5 0.5
v -0.5 0.5 0.3
v -0.5 0.5 0
v -0.5 0.5 -0.1
v -0.5 0.5 -0.2
v -0.5 0.6 0.5
v -0.5 0.6 0.4
v -0.5 0.6 0.3
v -0.5 0.6 0.2
v -0.5 0.6 0.1
v -0.5 0.6 0
v -0.5 0.7 0.5
v -0.5 0.7 0.4
v -0.5 0.7 0.3
v -0.5 0.7 0.2
v -0.5 0.7 0.1
v -0.5 0.7 0
v -0.5 0.7 -0.1
v -0.5 0.7 -0.2
v -0.5 0.8 -0.4
v -0.5 0.8 -0.5
v -0.5 0.9 0.3
v -0.5 0.9 0.2
v -0.5 0.9 0.1
v -0.5 0.9 -0.2
v -0.5 0.9 -0.4
v -0.5 0.9 -0.5
v -0.5 1 0.5
v -0.5 1 0.3
v -0.5 1 0.2
v -0.5 1 0.1
v -0.5 1 -0.2
v -0.5 1 -0.5
v 0.5 0 0.5
v 0.5 0 0.1
v 0.5 0 -0.2
v 0.5 0 -0.3
v 0.5 0 -0.4
v 0.5 0 -0.5
v 0.5 0.1 0.1
v 0.5 0.1 -0.2
v 0.5 0.1 -0.3
v 0.5 0.2 -0.2
v 0.5 0.2 -0.4
v 0.5 0.4 0.5
v 0.5 0.4 0.2
v 0.5 0.4 0
v 0.5 0.4 -0.2
v 0.5 0.5 0.4
v 0.5 0.5 0.3
v 0.5 0.5 0
v 0.5 0.5 -0.1
v 0.5 0.6 0.5
v 0.5 0.6 0.4
v 0.5 0.6 0.3
v 0.5 0.6 0.2
v 0.5 0.6 0
v 0.5 0.6 -0.1
v 0.5 0.6 -0.2
v 0.5 0.7 0.5
v 0.5 0.7 0
v 0.5 0.7 -0.1
v 0.5 0.9 -0.1
v 0.5 0.9 -0.2
v 0.5 0.9 -0.3
v 0.5 0.9 -0.4
v 0.5 1 0.5
v 0.5 1 -0.2
v 0.5 1 -0.3
v 0.5 1 -0.4
v 0.5 1 -0.5
v -0.5 0 0.5
v -0.5 0.4 0.5
v -0.5 0.5 0.5
v -0.5 0.6 0.5
v -0.5 0.7 0.5
v -0.5 1 0.5
v -0.4 0.4 0.5
v -0.4 0.5 0.5
v -0.4 0.6 0.5
v -0.4 0.7 0.5
v -0.3 0.1 0.5
v -0.3 0.4 0.5
v -0.2 0.2 0.5
v -0.2 0.4 0.5
v -0.1 0.1 0.5
v -0.1 0.2 0.5
v -0.1 0.9 0.5
v -0.1 1 0.5
v 0 0.7 0.5
v 0 0.9 0.5
v 0.1 0.1 0.5
v 0.1 0.2 0.5
v 0.2 0.1 0.5
v 0.2 0.2 0.5
v 0.2 0.3 0.5
v 0.3 0.2 0.5
v 0.3 0.3 0.5
v 0.4 0.4 0.5
v 0.4 0.6 0.5
v 0.5 0 0.5
v 0.5 0.4 0.5
v 0.5 0.6 0.5
v 0.5 0.7 0.5
v 0.5 1 0.5
v -0.5 0 -0.5
v -0.5 0.8 -0.5
v -0.5 0.9 -0.5
v -0.5 1 -0.5
v -0.4 0.4 -0.5
v -0.4 0.5 -0.5
v -0.3 0.2 -0.5
v -0.3 0.3 -0.5
v -0.3 0.4 -0.5
v -0.3 0.5 -0.5
v -0.3 0.9 -0.5
v -0.3 1 -0.5
v -0.2 0.2 -0.5
v -0.2 0.3 -0.5
v -0.2 0.4 -0.5
v -0.2 0.8 -0.5
v -0.2 0.9 -0.5
v -0.1 0.2 -0.5
v -0.1 0.3 -0.5
v -0.1 0.4 -0.5
v -0.1 0.5 -0.5
v -0.1 0.9 -0.5
v -0.1 1 -0.5
v 0 0.1 -0.5
v 0 0.2 -0.5
v 0 0.3 -0.5
v 0 0.4 -0.5
v 0 0.5 -0.5
v 0.1 0.1 -0.5
v 0.1 0.2 -0.5
v 0.2 0.1 -0.5
v 0.2 0.2 -0.5
v 0.2 0.4 -0.5
v 0.2 0.5 -0.5
v 0.2 0.9 -0.5
v 0.2 1 -0.5
v 0.3 0.2 -0.5
v 0.3 0.4 -0.5
v 0.4 0.1 -0.5
v 0.4 0.5 -0.5
v 0.4 0.9 -0.5
v 0.4 1 -0.5
v 0.5 0 -0.5
v 0.5 1 -0.5
v -0.5 0 0.5
v 0.5 0 0.5
v -0.3 0 0.4
v 0.2 0 0.4
v -0.1 0 0.3
v 0.2 0 0.3
v 0.3 0 0.3
v -0.2 0 0.2
v -0.1 0 0.2
v 0.2 0 0.2
v 0.3 0 0.2
v -0.5 0 0.1
v -0.4 0 0.1
v -0.3 0 0.1
v -0.2 0 0.1
v 0.4 0 0.1
v 0.5 0 0.1
v -0.5 0 0
v -0.4 0 0
v -0.5 0 -0.1
v -0.4 0 -0.1
v -0.1 0 -0.1
v 0.1 0 -0.1
v -0.5 0 -0.2
v -0.4 0 -0.2
v -0.2 0 -0.2
v -0.1 0 -0.2
v 0 0 -0.2
v 0.1 0 -0.2
v 0.2 0 -0.2
v 0.4 0 -0.2
v 0.5 0 -0.2
v -0.5 0 -0.3
v -0.4 0 -0.3
v -0.2 0 -0.3
v -0.1 0 -0.3
v 0 0 -0.3
v 0.2 0 -0.3
v 0.4 0 -0.3
v 0.5 0 -0.3
v -0.5 0 -0.4
v -0.4 0 -0.4
v 0.4 0 -0.4
v 0.5 0 -0.4
v -0.5 0 -0.5
v 0.5 0 -0.5
v -0.5 1 0.5
v -0.1 1 0.5
v 0.5 1 0.5
v -0.2 1 0.4
v -0.1 1 0.4
v 0.1 1 0.4
v 0.2 1 0.4
v -0.5 1 0.3
v -0.4 1 0.3
v -0.3 1 0.3
v -0.2 1 0.3
v -0.1 1 0.3
v 0.1 1 0.3
v 0.2 1 0.3
v -0.5 1 0.2
v -0.4 1 0.2
v -0.3 1 0.2
v 0.2 1 0.2
v 0.3 1 0.2
v -0.5 1 0.1
v -0.4 1 0.1
v -0.2 1 0.1
v -0.1 1 0.1
v 0.2 1 0.1
v 0.3 1 0.1
v -0.2 1 0
v -0.1 1 0
v 0 1 0
v 0.1 1 0
v -0.3 1 -0.1
v -0.2 1 -0.1
v 0 1 -0.1
v 0.1 1 -0.1
v -0.5 1 -0.2
v -0.3 1 -0.2
v -0.1 1 -0.2
v 0.5 1 -0.2
v 0 1 -0.3
v 0.1 1 -0.3
v 0.2 1 -0.3
v 0.5 1 -0.3
v -0.3 1 -0.4
v -0.1 1 -0.4
v 0 1 -0.4
v 0.1 1 -0.4
v 0.4 1 -0.4
v 0.5 1 -0.4
v -0.5 1 -0.5
v -0.3 1 -0.5
v -0.1 1 -0.5
v 0.2 1 -0.5
v 0.4 1 -0.5
v 0.5 1 -0.5

# faces
f 9/3/1 2/3/1 1/3/1
f 9/1/1 3/1/1 2/1/1
f 10/3/1 4/3/1 3/3/1
f 10/1/1 3/1/1 9/1/1
f 11/1/1 5/1/1 4/1/1
f 11/3/1 4/3/1 10/3/1
f 12/3/1 6/3/1 5/3/1
f 12/1/1 5/1/1 11/1/1
f 13/1/1 7/1/1 6/1/1
f 13/3/1 6/3/1 12/3/1
f 14/3/1 12/3/1 11/3/1
f 14/3/1 10/3/1 9/3/1
f 14/1/1 13/1/1 12/1/1
f 14/3/1 11/3/1 10/3/1
f 15/3/1 8/3/1 7/3/1
f 15/1/1 13/1/1 14/1/1
f 15/1/1 7/1/1 13/1/1
f 16/3/1 14/3/1 9/3/1
f 16/3/1 9/3/1 1/3/1
f 16/3/1 15/3/1 14/3/1
f 17/3/1 15/3/1 16/3/1
f 18/3/1 15/3/1 17/3/1
f 19/3/1 15/3/1 18/3/1
f 20/3/1 15/3/1 19/3/1
f 21/3/1 15/3/1 20/3/1
f 22/1/1 17/1/1 16/1/1
f 23/3/1 18/3/1 17/3/1
f 23/1/1 17/1/1 22/1/1
f 24/3/1 20/3/1 19/3/1
f 24/1/1 21/1/1 20/1/1
f 25/3/1 15/3/1 21/3/1
f 25/1/1 21/1/1 24/1/1
f 26/3/1 15/3/1 25/3/1
f 27/3/1 23/3/1 22/3/1
f 28/3/1 23/3/1 27/3/1
f 29/3/1 18/3/1 23/3/1
f 29/3/1 23/3/1 28/3/1
f 30/1/1 19/1/1 18/1/1
f 30/3/1 18/3/1 29/3/1
f 31/3/1 24/3/1 19/3/1
f 31/1/1 19/1/1 30/1/1
f 31/3/1 25/3/1 24/3/1
f 32/3/1 25/3/1 31/3/1
f 33/1/1 28/1/1 27/1/1
f 34/3/1 29/3/1 28/3/1
f 34/1/1 28/1/1 33/1/1
f 35/1/1 30/1/1 29/1/1
f 35/3/1 29/3/1 34/3/1
f 36/3/1 31/3/1 30/3/1
f 36/1/1 30/1/1 35/1/1
f 37/1/1 32/1/1 31/1/1
f 37/3/1 31/3/1 36/3/1
f 38/3/1 25/3/1 32/3/1
f 38/1/1 32/1/1 37/1/1
f 39/1/1 26/1/1 25/1/1
f 39/3/1 25/3/1 38/3/1
f 40/3/1 15/3/1 26/3/1
f 40/1/1 26/1/1 39/1/1
f 41/3/1 8/3/1 15/3/1
f 41/3/1 15/3/1 40/3/1
f 41/3/1 40/3/1 39/3/1
f 41/3/1 36/3/1 35/3/1
f 41/3/1 35/3/1 34/3/1
f 41/3/1 38/3/1 37/3/1
f 41/3/1 34/3/1 33/3/1
f 41/3/1 39/3/1 38/3/1
f 41/3/1 37/3/1 36/3/1
f 42/3/1 8/3/1 41/3/1
f 43/3/1 41/3/1 33/3/1
f 44/3/1 41/3/1 43/3/1
f 45/3/1 41/3/1 44/3/1
f 46/3/1 41/3/1 45/3/1
f 47/1/1 42/1/1 41/1/1
f 47/3/1 41/3/1 46/3/1
f 48/1/1 42/1/1 47/1/1
f 49/3/1 43/3/1 33/3/1
f 50/1/1 44/1/1 43/1/1
f 50/3/1 43/3/1 49/3/1
f 51/3/1 45/3/1 44/3/1
f 51/1/1 44/1/1 50/1/1
f 52/1/1 46/1/1 45/1/1
f 52/3/1 45/3/1 51/3/1
f 53/3/1 47/3/1 46/3/1
f 53/1/1 46/1/1 52/1/1
f 53/3/1 48/3/1 47/3/1
f 54/3/1 48/3/1 53/3/1
f 55/3/2 56/3/2 61/3/2
f 56/1/2 57/1/2 61/1/2
f 57/3/2 58/3/2 62/3/2
f 61/1/2 57/1/2 62/1/2
f 58/1/2 59/1/2 63/1/2
f 62/3/2 58/3/2 63/3/2
f 61/3/2 62/3/2 64/3/2
f 62/1/2 63/1/2 64/1/2
f 59/3/2 60/3/2 65/3/2
f 64/1/2 63/1/2 65/1/2
f 63/1/2 59/1/2 65/1/2
f 61/3/2 64/3/2 66/3/2
f 55/3/2 61/3/2 66/3/2
f 64/3/2 65/3/2 66/3/2
f 66/3/2 65/3/2 67/3/2
f 67/3/2 65/3/2 68/3/2
f 68/3/2 65/3/2 69/3/2
f 66/1/2 67/1/2 70/1/2
f 70/1/2 67/1/2 71/1/2
f 67/3/2 68/3/2 72/3/2
f 68/1/2 69/1/2 72/1/2
f 72/1/2 69/1/2 73/1/2
f 66/1/2 70/1/2 74/1/2
f 70/3/2 71/3/2 75/3/2
f 74/1/2 70/1/2 75/1/2
f 71/1/2 67/1/2 76/1/2
f 75/3/2 71/3/2 76/3/2
f 67/3/2 72/3/2 77/3/2
f 76/1/2 67/1/2 77/1/2
f 72/3/2 73/3/2 77/3/2
f 77/3/2 73/3/2 78/3/2
f 73/1/2 69/1/2 79/1/2
f 78/3/2 73/3/2 79/3/2
f 69/3/2 65/3/2 80/3/2
f 79/1/2 69/1/2 80/1/2
f 74/3/2 75/3/2 81/3/2
f 77/3/2 78/3/2 81/3/2
f 75/3/2 76/3/2 81/3/2
f 76/3/2 77/3/2 81/3/2
f 78/1/2 79/1/2 82/1/2
f 81/3/2 78/3/2 82/3/2
f 79/3/2 80/3/2 83/3/2
f 82/1/2 79/1/2 83/1/2
f 81/2/2 82/2/2 84/2/2
f 83/3/2 80/3/2 84/3/2
f 82/2/2 83/2/2 84/2/2
f 80/3/2 65/3/2 85/3/2
f 84/3/2 80/3/2 85/3/2
f 85/3/2 65/3/2 86/3/2
f 65/3/2 60/3/2 87/3/2
f 86/3/2 65/3/2 87/3/2
f 81/2/2 84/2/2 88/2/2
f 84/2/2 85/2/2 88/2/2
f 85/3/2 86/3/2 89/3/2
f 88/2/2 85/2/2 89/2/2
f 86/1/2 87/1/2 90/1/2
f 89/3/2 86/3/2 90/3/2
f 87/3/2 60/3/2 91/3/2
f 90/1/2 87/1/2 91/1/2
f 91/3/2 60/3/2 92/3/2
f 99/3/3 94/3/3 93/3/3
f 99/1/3 95/1/3 94/1/3
f 100/3/3 96/3/3 95/3/3
f 100/1/3 95/1/3 99/1/3
f 101/1/3 97/1/3 96/1/3
f 101/3/3 96/3/3 100/3/3
f 102/3/3 98/3/3 97/3/3
f 102/1/3 97/1/3 101/1/3
f 103/3/3 101/3/3 100/3/3
f 103/3/3 100/3/3 99/3/3
f 103/3/3 102/3/3 101/3/3
f 103/3/3 99/3/3 93/3/3
f 104/3/3 102/3/3 103/3/3
f 105/1/3 104/1/3 103/1/3
f 106/3/3 102/3/3 104/3/3
f 106/1/3 104/1/3 105/1/3
f 107/3/3 103/3/3 93/3/3
f 107/1/3 105/1/3 103/1/3
f 108/3/3 106/3/3 105/3/3
f 108/1/3 105/1/3 107/1/3
f 109/3/3 98/3/3 102/3/3
f 109/3/3 106/3/3 108/3/3
f 109/3/3 102/3/3 106/3/3
f 110/3/3 98/3/3 109/3/3
f 111/3/3 108/3/3 107/3/3
f 111/3/3 109/3/3 108/3/3
f 112/2/3 110/2/3 109/2/3
f 112/3/3 109/3/3 111/3/3
f 113/3/3 107/3/3 93/3/3
f 113/3/3 111/3/3 107/3/3
f 114/3/3 111/3/3 113/3/3
f 115/3/3 113/3/3 93/3/3
f 115/1/3 114/1/3 113/1/3
f 116/3/3 111/3/3 114/3/3
f 116/1/3 114/1/3 115/1/3
f 117/3/3 111/3/3 116/3/3
f 118/3/3 116/3/3 115/3/3
f 118/1/3 117/1/3 116/1/3
f 119/3/3 111/3/3 117/3/3
f 119/1/3 117/1/3 118/1/3
f 120/3/3 119/3/3 118/3/3
f 120/3/3 111/3/3 119/3/3
f 121/3/3 111/3/3 120/3/3
f 122/3/3 115/3/3 93/3/3
f 122/3/3 118/3/3 115/3/3
f 122/3/3 120/3/3 118/3/3
f 123/1/3 121/1/3 120/1/3
f 123/3/3 120/3/3 122/3/3
f 124/3/3 111/3/3 121/3/3
f 124/1/3 121/1/3 123/1/3
f 125/2/3 112/2/3 111/2/3
f 125/3/3 111/3/3 124/3/3
f 126/2/3 110/2/3 112/2/3
f 126/2/3 112/2/3 125/2/3
f 127/3/4 128/3/4 131/3/4
f 131/3/4 128/3/4 132/3/4
f 127/3/4 131/3/4 133/3/4
f 133/3/4 131/3/4 134/3/4
f 131/1/4 132/1/4 135/1/4
f 134/3/4 131/3/4 135/3/4
f 132/3/4 128/3/4 136/3/4
f 135/1/4 132/1/4 136/1/4
f 129/3/4 130/3/4 137/3/4
f 128/1/4 129/1/4 137/1/4
f 137/3/4 130/3/4 138/3/4
f 133/1/4 134/1/4 139/1/4
f 127/3/4 133/3/4 139/3/4
f 135/3/4 136/3/4 140/3/4
f 139/1/4 134/1/4 140/1/4
f 134/3/4 135/3/4 140/3/4
f 140/3/4 136/3/4 141/3/4
f 136/3/4 128/3/4 142/3/4
f 141/3/4 136/3/4 142/3/4
f 128/1/4 137/1/4 142/1/4
f 137/1/4 138/1/4 142/1/4
f 142/1/4 138/1/4 143/1/4
f 127/3/4 139/3/4 144/3/4
f 139/3/4 140/3/4 144/3/4
f 140/1/4 141/1/4 145/1/4
f 144/3/4 140/3/4 145/3/4
f 142/3/4 143/3/4 146/3/4
f 145/1/4 141/1/4 146/1/4
f 141/3/4 142/3/4 146/3/4
f 146/3/4 143/3/4 147/3/4
f 143/1/4 138/1/4 148/1/4
f 147/3/4 143/3/4 148/3/4
f 148/1/4 138/1/4 149/1/4
f 127/3/4 144/3/4 150/3/4
f 144/1/4 145/1/4 151/1/4
f 150/3/4 144/3/4 151/3/4
f 145/3/4 146/3/4 152/3/4
f 151/1/4 145/1/4 152/1/4
f 146/1/4 147/1/4 153/1/4
f 152/3/4 146/3/4 153/3/4
f 147/3/4 148/3/4 154/3/4
f 153/1/4 147/1/4 154/1/4
f 148/3/4 149/3/4 154/3/4
f 127/3/4 150/3/4 155/3/4
f 150/1/4 151/1/4 155/1/4
f 151/3/4 152/3/4 156/3/4
f 155/1/4 151/1/4 156/1/4
f 153/3/4 154/3/4 156/3/4
f 152/3/4 153/3/4 156/3/4
f 127/3/4 155/3/4 157/3/4
f 155/3/4 156/3/4 157/3/4
f 156/3/4 154/3/4 158/3/4
f 157/3/4 156/3/4 158/3/4
f 158/3/4 154/3/4 159/3/4
f 154/3/4 149/3/4 160/3/4
f 159/3/4 154/3/4 160/3/4
f 160/3/4 149/3/4 161/3/4
f 161/3/4 149/3/4 162/3/4
f 158/3/4 159/3/4 163/3/4
f 157/1/4 158/1/4 163/1/4
f 159/1/4 160/1/4 164/1/4
f 163/3/4 159/3/4 164/3/4
f 127/3/4 157/3/4 165/3/4
f 157/1/4 163/1/4 165/1/4
f 163/1/4 164/1/4 165/1/4
f 164/1/4 160/1/4 166/1/4
f 165/1/4 164/1/4 166/1/4
f 160/3/4 161/3/4 166/3/4
f 161/1/4 162/1/4 167/1/4
f 166/3/4 161/3/4 167/3/4
f 167/1/4 162/1/4 168/1/4
f 127/3/4 165/3/4 169/3/4
f 165/3/4 166/3/4 169/3/4
f 167/3/4 168/3/4 169/3/4
f 166/3/4 167/3/4 169/3/4
f 169/3/4 168/3/4 170/3/4
f 173/3/5 172/3/5 171/3/5
f 174/3/5 172/3/5 173/3/5
f 175/1/5 174/1/5 173/1/5
f 176/3/5 172/3/5 174/3/5
f 176/1/5 174/1/5 175/1/5
f 177/3/5 172/3/5 176/3/5
f 178/1/5 175/1/5 173/1/5
f 179/3/5 176/3/5 175/3/5
f 179/1/5 175/1/5 178/1/5
f 180/1/5 177/1/5 176/1/5
f 180/3/5 176/3/5 179/3/5
f 181/3/5 172/3/5 177/3/5
f 181/1/5 177/1/5 180/1/5
f 182/3/5 173/3/5 171/3/5
f 183/3/5 173/3/5 182/3/5
f 184/1/5 178/1/5 173/1/5
f 184/3/5 173/3/5 183/3/5
f 185/3/5 180/3/5 179/3/5
f 185/1/5 178/1/5 184/1/5
f 185/3/5 179/3/5 178/3/5
f 185/3/5 181/3/5 180/3/5
f 186/3/5 172/3/5 181/3/5
f 186/3/5 181/3/5 185/3/5
f 187/3/5 172/3/5 186/3/5
f 188/1/5 183/1/5 182/1/5
f 189/3/5 185/3/5 184/3/5
f 189/1/5 183/1/5 188/1/5
f 189/3/5 184/3/5 183/3/5
f 189/3/5 186/3/5 185/3/5
f 190/3/5 189/3/5 188/3/5
f 191/3/5 186/3/5 189/3/5
f 191/3/5 189/3/5 190/3/5
f 192/3/5 186/3/5 191/3/5
f 193/3/5 186/3/5 192/3/5
f 194/1/5 191/1/5 190/1/5
f 195/3/5 192/3/5 191/3/5
f 195/1/5 191/1/5 194/1/5
f 196/3/5 192/3/5 195/3/5
f 197/1/5 193/1/5 192/1/5
f 197/3/5 192/3/5 196/3/5
f 198/1/5 193/1/5 197/1/5
f 199/3/5 186/3/5 193/3/5
f 199/1/5 193/1/5 198/1/5
f 200/3/5 186/3/5 199/3/5
f 201/1/5 187/1/5 186/1/5
f 201/3/5 186/3/5 200/3/5
f 202/1/5 187/1/5 201/1/5
f 203/3/5 196/3/5 195/3/5
f 203/3/5 195/3/5 194/3/5
f 204/3/5 196/3/5 203/3/5
f 205/1/5 197/1/5 196/1/5
f 205/3/5 196/3/5 204/3/5
f 206/3/5 198/3/5 197/3/5
f 206/1/5 197/1/5 205/1/5
f 207/1/5 200/1/5 199/1/5
f 207/3/5 198/3/5 206/3/5
f 207/1/5 199/1/5 198/1/5
f 208/3/5 202/3/5 201/3/5
f 208/1/5 200/1/5 207/1/5
f 208/3/5 201/3/5 200/3/5
f 209/3/5 202/3/5 208/3/5
f 210/3/5 202/3/5 209/3/5
f 211/1/5 204/1/5 203/1/5
f 212/3/5 206/3/5 205/3/5
f 212/1/5 204/1/5 211/1/5
f 212/3/5 205/3/5 204/3/5
f 212/3/5 207/3/5 206/3/5
f 212/3/5 209/3/5 208/3/5
f 212/3/5 208/3/5 207/3/5
f 213/1/5 210/1/5 209/1/5
f 213/3/5 209/3/5 212/3/5
f 214/1/5 210/1/5 213/1/5
f 215/3/5 212/3/5 211/3/5
f 215/3/5 213/3/5 212/3/5
f 215/3/5 214/3/5 213/3/5
f 216/3/5 214/3/5 215/3/5
f 217/3/6 218/3/6 220/3/6
f 218/2/6 219/2/6 221/2/6
f 220/3/6 218/3/6 221/3/6
f 221/2/6 219/2/6 222/2/6
f 222/2/6 219/2/6 223/2/6
f 217/3/6 220/3/6 224/3/6
f 224/3/6 220/3/6 225/3/6
f 225/3/6 220/3/6 226/3/6
f 220/1/6 221/1/6 227/1/6
f 226/3/6 220/3/6 227/3/6
f 221/2/6 222/2/6 228/2/6
f 227/1/6 221/1/6 228/1/6
f 222/1/6 223/1/6 229/1/6
f 228/2/6 222/2/6 229/2/6
f 223/2/6 219/2/6 230/2/6
f 229/1/6 223/1/6 230/1/6
f 224/1/6 225/1/6 231/1/6
f 225/3/6 226/3/6 232/3/6
f 231/1/6 225/1/6 232/1/6
f 226/1/6 227/1/6 233/1/6
f 232/3/6 226/3/6 233/3/6
f 228/2/6 229/2/6 234/2/6
f 230/2/6 219/2/6 234/2/6
f 229/2/6 230/2/6 234/2/6
f 234/2/6 219/2/6 235/2/6
f 231/3/6 232/3/6 236/3/6
f 232/1/6 233/1/6 237/1/6
f 236/3/6 232/3/6 237/3/6
f 233/1/6 227/1/6 238/1/6
f 237/1/6 233/1/6 238/1/6
f 227/3/6 228/3/6 238/3/6
f 228/2/6 234/2/6 239/2/6
f 238/3/6 228/3/6 239/3/6
f 234/1/6 235/1/6 240/1/6
f 239/2/6 234/2/6 240/2/6
f 235/2/6 219/2/6 241/2/6
f 240/1/6 235/1/6 241/1/6
f 236/1/6 237/1/6 242/1/6
f 238/1/6 239/1/6 242/1/6
f 237/1/6 238/1/6 242/1/6
f 239/2/6 240/2/6 243/2/6
f 242/1/6 239/1/6 243/1/6
f 240/2/6 241/2/6 243/2/6
f 243/2/6 241/2/6 244/2/6
f 244/2/6 241/2/6 245/2/6
f 236/1/6 242/1/6 246/1/6
f 242/3/6 243/3/6 247/3/6
f 246/1/6 242/1/6 247/1/6
f 243/2/6 244/2/6 248/2/6
f 244/1/6 245/1/6 248/1/6
f 245/2/6 241/2/6 249/2/6
f 248/1/6 245/1/6 249/1/6
f 236/1/6 246/1/6 250/1/6
f 246/3/6 247/3/6 251/3/6
f 250/1/6 246/1/6 251/1/6
f 243/2/6 248/2/6 252/2/6
f 251/3/6 247/3/6 252/3/6
f 247/3/6 243/3/6 252/3/6
f 248/2/6 249/2/6 252/2/6
f 241/2/6 219/2/6 253/2/6
f 252/2/6 249/2/6 253/2/6
f 249/2/6 241/2/6 253/2/6
f 251/3/6 252/3/6 254/3/6
f 250/3/6 251/3/6 254/3/6
f 252/3/6 253/3/6 254/3/6
f 254/3/6 253/3/6 255/3/6
f 255/3/6 253/3/6 256/3/6
f 256/3/6 253/3/6 257/3/6
f 250/3/6 254/3/6 258/3/6
f 258/3/6 254/3/6 259/3/6
f 254/1/6 255/1/6 260/1/6
f 259/3/6 254/3/6 260/3/6
f 255/3/6 256/3/6 261/3/6
f 260/1/6 255/1/6 261/1/6
f 256/1/6 257/1/6 262/1/6
f 262/1/6 257/1/6 263/1/6
f 250/3/6 258/3/6 264/3/6
f 258/1/6 259/1/6 265/1/6
f 264/3/6 258/3/6 265/3/6
f 259/3/6 260/3/6 266/3/6
f 265/1/6 259/1/6 266/1/6
f 260/3/6 261/3/6 266/3/6
f 261/3/6 256/3/6 267/3/6
f 266/3/6 261/3/6 267/3/6
f 256/1/6 262/1/6 267/1/6
f 262/3/6 263/3/6 268/3/6
f 267/1/6 262/1/6 268/1/6
f 268/3/6 263/3/6 269/3/6
