# MagicaVoxel @ Ephtracy

# group
o 

# material
mtllib 3x3x3.mtl
usemtl palette

# normals
vn -1 0 0
vn 1 0 0
vn 0 0 1
vn 0 0 -1
vn 0 -1 0
vn 0 1 0

# texcoords
vt 0.0605469 0.5
vt 0.115234 0.5
vt 0.134766 0.5
vt 0.138672 0.5
vt 0.533203 0.5
vt 0.837891 0.5
vt 0.841797 0.5
vt 0.904297 0.5
vt 0.982422 0.5
vt 0.994141 0.5

# verts
v -0.6 1 0.2
v -0.6 1 -0.1
v -0.6 1.1 0.2
v -0.6 1.1 -0.1
v -0.6 1.3 0.2
v -0.6 1.3 0
v -0.6 1.3 -0.1
v -0.6 1.4 0
v -0.6 1.4 -0.1
v -0.6 1.5 0.2
v -0.6 1.5 -0.1
v -0.5 0 0.4
v -0.5 0 -0.2
v -0.5 0.3 0.4
v -0.5 0.3 -0.2
v -0.4 0 0.5
v -0.4 0 0.4
v -0.4 0.2 0.5
v -0.4 0.2 0.4
v -0.4 0.3 0.2
v -0.4 0.3 0
v -0.4 0.3 -0.1
v -0.4 0.4 0
v -0.4 0.4 -0.1
v -0.4 0.5 0.2
v -0.4 0.5 -0.1
v -0.4 0.6 0.2
v -0.4 0.6 0.1
v -0.4 0.7 0.2
v -0.4 0.7 0.1
v -0.4 1 0.2
v -0.4 1 -0.1
v -0.4 1.5 0.2
v -0.4 1.5 -0.1
v -0.4 1.6 0.2
v -0.4 1.6 -0.1
v -0.3 1 0.2
v -0.3 1 0
v -0.3 1 -0.1
v -0.3 1.1 0.2
v -0.3 1.1 0
v -0.3 1.1 -0.1
v -0.2 1.1 0.2
v -0.2 1.1 0.1
v -0.2 1.1 0
v -0.2 1.1 -0.1
v -0.2 1.2 0.2
v -0.2 1.2 0.1
v -0.2 1.3 0.2
v -0.2 1.3 -0.1
v -0.2 1.6 0.2
v -0.2 1.6 -0.1
v -0.2 1.8 0
v -0.2 1.8 -0.1
v -0.2 1.9 0.2
v -0.2 1.9 0
v -0.2 1.9 -0.1
v -0.2 2 0.2
v -0.2 2 -0.1
v 0.1 0 0.4
v 0.1 0 -0.2
v 0.1 0.3 0.4
v 0.1 0.3 -0.2
v 0.1 0.7 0.2
v 0.1 0.7 -0.1
v 0.1 0.8 0.2
v 0.1 0.8 -0.1
v 0.2 0 0.5
v 0.2 0 0.4
v 0.2 0.2 0.5
v 0.2 0.2 0.4
v 0.2 0.3 0.2
v 0.2 0.3 -0.1
v 0.2 0.4 0.1
v 0.2 0.4 -0.1
v 0.2 0.5 0.2
v 0.2 0.5 0.1
v 0.2 0.5 -0.1
v 0.2 0.7 0.2
v 0.2 0.7 -0.1
v 0.4 0.6 -0.1
v 0.4 0.6 -0.4
v 0.4 0.7 -0.1
v 0.4 0.7 -0.2
v 0.4 0.7 -0.4
v 0.4 0.7 -0.5
v 0.4 0.8 -0.1
v 0.4 0.8 -0.2
v 0.4 0.8 -0.5
v 0.4 0.8 -0.6
v 0.4 0.9 -0.4
v 0.4 0.9 -0.5
v 0.4 1 0.2
v 0.4 1 -0.1
v 0.4 1 -0.5
v 0.4 1 -0.6
v 0.4 1.1 0.3
v 0.4 1.1 0.2
v 0.4 1.1 0
v 0.4 1.1 -0.1
v 0.4 1.2 0.4
v 0.4 1.2 0.3
v 0.4 1.2 0
v 0.4 1.2 -0.1
v 0.4 1.2 -0.2
v 0.4 1.3 0.5
v 0.4 1.3 0.4
v 0.4 1.3 0.3
v 0.4 1.3 0.2
v 0.4 1.3 -0.1
v 0.4 1.3 -0.2
v 0.4 1.4 0.6
v 0.4 1.4 0.5
v 0.4 1.4 0.4
v 0.4 1.4 0.3
v 0.4 1.5 0.7
v 0.4 1.5 0.6
v 0.4 1.5 0.5
v 0.4 1.5 0.4
v 0.4 1.6 0.6
v 0.4 1.6 0.5
v 0.4 1.7 0.7
v 0.4 1.7 0.6
v -0.4 1 0.2
v -0.4 1 -0.1
v -0.4 1.1 0.2
v -0.4 1.1 -0.1
v -0.4 1.3 0.2
v -0.4 1.3 -0.1
v -0.2 0 0.5
v -0.2 0 0.4
v -0.2 0.2 0.5
v -0.2 0.2 0.4
v -0.2 0.3 0.2
v -0.2 0.3 -0.1
v -0.2 0.5 0.2
v -0.2 0.5 -0.1
v -0.2 0.7 0.2
v -0.2 0.7 -0.1
v -0.1 0 0.4
v -0.1 0 -0.2
v -0.1 0.3 0.4
v -0.1 0.3 -0.2
v -0.1 0.7 0.2
v -0.1 0.7 -0.1
v -0.1 0.8 0.2
v -0.1 0.8 -0.1
v 0.2 1.1 0.2
v 0.2 1.1 -0.1
v 0.2 1.3 0.2
v 0.2 1.3 -0.1
v 0.2 1.6 0.2
v 0.2 1.6 -0.1
v 0.2 1.8 0
v 0.2 1.8 -0.1
v 0.2 1.9 0.2
v 0.2 1.9 0
v 0.2 1.9 -0.1
v 0.2 2 0.2
v 0.2 2 -0.1
v 0.3 1 0.2
v 0.3 1 -0.1
v 0.3 1.1 0.2
v 0.3 1.1 -0.1
v 0.4 0 0.5
v 0.4 0 0.4
v 0.4 0.2 0.5
v 0.4 0.2 0.4
v 0.4 0.3 0.2
v 0.4 0.3 -0.1
v 0.4 0.5 0.2
v 0.4 0.5 -0.1
v 0.4 0.6 -0.1
v 0.4 0.7 0
v 0.4 0.7 -0.1
v 0.4 0.8 0.1
v 0.4 0.8 0
v 0.4 0.9 0.2
v 0.4 0.9 0.1
v 0.4 0.9 0
v 0.4 0.9 -0.1
v 0.4 1 0
v 0.4 1 -0.1
v 0.4 1.5 0.2
v 0.4 1.5 -0.1
v 0.4 1.6 0.2
v 0.4 1.6 -0.1
v 0.5 0 0.4
v 0.5 0 -0.2
v 0.5 0.3 0.4
v 0.5 0.3 -0.2
v 0.5 0.6 -0.1
v 0.5 0.6 -0.4
v 0.5 0.7 0
v 0.5 0.7 -0.1
v 0.5 0.7 -0.2
v 0.5 0.7 -0.4
v 0.5 0.7 -0.5
v 0.5 0.8 0.1
v 0.5 0.8 0
v 0.5 0.8 -0.1
v 0.5 0.8 -0.2
v 0.5 0.8 -0.5
v 0.5 0.8 -0.6
v 0.5 0.9 0.2
v 0.5 0.9 0.1
v 0.5 0.9 0
v 0.5 0.9 -0.1
v 0.5 0.9 -0.4
v 0.5 0.9 -0.5
v 0.5 1 0.2
v 0.5 1 0.1
v 0.5 1 0
v 0.5 1 -0.5
v 0.5 1 -0.6
v 0.5 1.1 0.3
v 0.5 1.1 0.2
v 0.5 1.2 0.4
v 0.5 1.2 0.3
v 0.5 1.2 -0.1
v 0.5 1.2 -0.2
v 0.5 1.3 0.5
v 0.5 1.3 0.4
v 0.5 1.3 0.3
v 0.5 1.3 0.2
v 0.5 1.3 -0.1
v 0.5 1.3 -0.2
v 0.5 1.4 0.6
v 0.5 1.4 0.5
v 0.5 1.4 0.4
v 0.5 1.4 0.3
v 0.5 1.5 0.7
v 0.5 1.5 0.6
v 0.5 1.5 0.5
v 0.5 1.5 0.4
v 0.5 1.6 0.7
v 0.5 1.6 0.6
v 0.5 1.6 0.5
v 0.6 1 0.2
v 0.6 1 0.1
v 0.6 1 -0.1
v 0.6 1.1 0.2
v 0.6 1.1 0.1
v 0.6 1.1 -0.1
v 0.6 1.3 0.2
v 0.6 1.3 0
v 0.6 1.3 -0.1
v 0.6 1.4 0
v 0.6 1.4 -0.1
v 0.6 1.5 0.2
v 0.6 1.5 -0.1
v 0.6 1.6 0.7
v 0.6 1.6 0.6
v 0.6 1.7 0.7
v 0.6 1.7 0.6
v 0.4 1.5 0.7
v 0.4 1.7 0.7
v 0.5 1.5 0.7
v 0.5 1.6 0.7
v 0.6 1.6 0.7
v 0.6 1.7 0.7
v 0.4 1.4 0.6
v 0.4 1.5 0.6
v 0.5 1.4 0.6
v 0.5 1.5 0.6
v -0.4 0 0.5
v -0.4 0.2 0.5
v -0.2 0 0.5
v -0.2 0.2 0.5
v 0.2 0 0.5
v 0.2 0.2 0.5
v 0.4 0 0.5
v 0.4 0.2 0.5
v 0.4 1.3 0.5
v 0.4 1.4 0.5
v 0.5 1.3 0.5
v 0.5 1.4 0.5
v -0.5 0 0.4
v -0.5 0.3 0.4
v -0.4 0 0.4
v -0.4 0.2 0.4
v -0.2 0 0.4
v -0.2 0.2 0.4
v -0.1 0 0.4
v -0.1 0.3 0.4
v 0.1 0 0.4
v 0.1 0.3 0.4
v 0.2 0 0.4
v 0.2 0.2 0.4
v 0.4 0 0.4
v 0.4 0.2 0.4
v 0.4 1.2 0.4
v 0.4 1.3 0.4
v 0.5 0 0.4
v 0.5 0.3 0.4
v 0.5 1.2 0.4
v 0.5 1.3 0.4
v 0.4 1.1 0.3
v 0.4 1.2 0.3
v 0.5 1.1 0.3
v 0.5 1.2 0.3
v -0.6 1 0.2
v -0.6 1.1 0.2
v -0.6 1.3 0.2
v -0.6 1.5 0.2
v -0.4 0.3 0.2
v -0.4 0.5 0.2
v -0.4 0.6 0.2
v -0.4 0.7 0.2
v -0.4 1 0.2
v -0.4 1.1 0.2
v -0.4 1.3 0.2
v -0.4 1.5 0.2
v -0.4 1.6 0.2
v -0.3 0.6 0.2
v -0.3 0.7 0.2
v -0.3 1 0.2
v -0.3 1.1 0.2
v -0.2 0.3 0.2
v -0.2 0.5 0.2
v -0.2 0.7 0.2
v -0.2 1.1 0.2
v -0.2 1.2 0.2
v -0.2 1.3 0.2
v -0.2 1.4 0.2
v -0.2 1.6 0.2
v -0.2 1.9 0.2
v -0.2 2 0.2
v -0.1 0.7 0.2
v -0.1 0.8 0.2
v -0.1 1.1 0.2
v -0.1 1.2 0.2
v -0.1 1.3 0.2
v -0.1 1.4 0.2
v -0.1 1.5 0.2
v 0 1.4 0.2
v 0 1.5 0.2
v 0.1 0.7 0.2
v 0.1 0.8 0.2
v 0.1 0.9 0.2
v 0.1 1 0.2
v 0.1 1.4 0.2
v 0.1 1.5 0.2
v 0.2 0.3 0.2
v 0.2 0.5 0.2
v 0.2 0.7 0.2
v 0.2 0.8 0.2
v 0.2 0.9 0.2
v 0.2 1 0.2
v 0.2 1.1 0.2
v 0.2 1.3 0.2
v 0.2 1.4 0.2
v 0.2 1.5 0.2
v 0.2 1.6 0.2
v 0.2 1.9 0.2
v 0.2 2 0.2
v 0.3 0.8 0.2
v 0.3 0.9 0.2
v 0.3 1 0.2
v 0.3 1.1 0.2
v 0.4 0.3 0.2
v 0.4 0.5 0.2
v 0.4 0.9 0.2
v 0.4 1 0.2
v 0.4 1.1 0.2
v 0.4 1.3 0.2
v 0.4 1.5 0.2
v 0.4 1.6 0.2
v 0.5 0.9 0.2
v 0.5 1 0.2
v 0.5 1.1 0.2
v 0.5 1.3 0.2
v 0.6 1 0.2
v 0.6 1.1 0.2
v 0.6 1.3 0.2
v 0.6 1.5 0.2
v 0.4 0.8 0.1
v 0.4 0.9 0.1
v 0.5 0.8 0.1
v 0.5 0.9 0.1
v 0.4 0.7 0
v 0.4 0.8 0
v 0.5 0.7 0
v 0.5 0.8 0
v 0.4 0.6 -0.1
v 0.4 0.7 -0.1
v 0.5 0.6 -0.1
v 0.5 0.7 -0.1
v 0.4 0.7 -0.4
v 0.4 0.9 -0.4
v 0.5 0.7 -0.4
v 0.5 0.9 -0.4
v 0.4 0.9 -0.5
v 0.4 1 -0.5
v 0.5 0.9 -0.5
v 0.5 1 -0.5
v 0.4 1.6 0.6
v 0.4 1.7 0.6
v 0.5 1.6 0.6
v 0.6 1.6 0.6
v 0.6 1.7 0.6
v 0.4 1.5 0.5
v 0.4 1.6 0.5
v 0.5 1.5 0.5
v 0.5 1.6 0.5
v 0.4 1.4 0.4
v 0.4 1.5 0.4
v 0.5 1.4 0.4
v 0.5 1.5 0.4
v 0.4 1.3 0.3
v 0.4 1.4 0.3
v 0.5 1.3 0.3
v 0.5 1.4 0.3
v 0.4 0.9 0
v 0.4 1 0
v 0.5 0.9 0
v 0.5 1 0
v -0.6 1 -0.1
v -0.6 1.1 -0.1
v -0.6 1.3 -0.1
v -0.6 1.4 -0.1
v -0.6 1.5 -0.1
v -0.5 1.3 -0.1
v -0.5 1.4 -0.1
v -0.4 0.3 -0.1
v -0.4 0.4 -0.1
v -0.4 0.5 -0.1
v -0.4 1 -0.1
v -0.4 1.1 -0.1
v -0.4 1.3 -0.1
v -0.4 1.5 -0.1
v -0.4 1.6 -0.1
v -0.3 0.3 -0.1
v -0.3 0.4 -0.1
v -0.3 1 -0.1
v -0.3 1.1 -0.1
v -0.2 0.3 -0.1
v -0.2 0.5 -0.1
v -0.2 0.7 -0.1
v -0.2 0.9 -0.1
v -0.2 1 -0.1
v -0.2 1.1 -0.1
v -0.2 1.3 -0.1
v -0.2 1.6 -0.1
v -0.2 1.8 -0.1
v -0.2 1.9 -0.1
v -0.2 2 -0.1
v -0.1 0.7 -0.1
v -0.1 0.8 -0.1
v -0.1 0.9 -0.1
v -0.1 1 -0.1
v -0.1 1.6 -0.1
v -0.1 1.7 -0.1
v -0.1 1.8 -0.1
v -0.1 1.9 -0.1
v 0 1.3 -0.1
v 0 1.4 -0.1
v 0.1 0.7 -0.1
v 0.1 0.8 -0.1
v 0.1 1.3 -0.1
v 0.1 1.4 -0.1
v 0.1 1.5 -0.1
v 0.1 1.6 -0.1
v 0.1 1.7 -0.1
v 0.1 1.8 -0.1
v 0.1 1.9 -0.1
v 0.2 0.3 -0.1
v 0.2 0.4 -0.1
v 0.2 0.5 -0.1
v 0.2 0.7 -0.1
v 0.2 0.8 -0.1
v 0.2 0.9 -0.1
v 0.2 1.1 -0.1
v 0.2 1.3 -0.1
v 0.2 1.4 -0.1
v 0.2 1.5 -0.1
v 0.2 1.6 -0.1
v 0.2 1.8 -0.1
v 0.2 1.9 -0.1
v 0.2 2 -0.1
v 0.3 0.4 -0.1
v 0.3 0.5 -0.1
v 0.3 0.7 -0.1
v 0.3 0.8 -0.1
v 0.3 0.9 -0.1
v 0.3 1 -0.1
v 0.3 1.1 -0.1
v 0.4 0.3 -0.1
v 0.4 0.5 -0.1
v 0.4 0.6 -0.1
v 0.4 0.7 -0.1
v 0.4 0.8 -0.1
v 0.4 0.9 -0.1
v 0.4 1 -0.1
v 0.4 1.1 -0.1
v 0.4 1.2 -0.1
v 0.4 1.3 -0.1
v 0.4 1.5 -0.1
v 0.4 1.6 -0.1
v 0.5 0.8 -0.1
v 0.5 0.9 -0.1
v 0.5 1.1 -0.1
v 0.5 1.2 -0.1
v 0.5 1.3 -0.1
v 0.5 1.4 -0.1
v 0.6 1 -0.1
v 0.6 1.1 -0.1
v 0.6 1.3 -0.1
v 0.6 1.4 -0.1
v 0.6 1.5 -0.1
v -0.5 0 -0.2
v -0.5 0.3 -0.2
v -0.1 0 -0.2
v -0.1 0.3 -0.2
v 0.1 0 -0.2
v 0.1 0.3 -0.2
v 0.4 0.7 -0.2
v 0.4 0.8 -0.2
v 0.4 1.2 -0.2
v 0.4 1.3 -0.2
v 0.5 0 -0.2
v 0.5 0.3 -0.2
v 0.5 0.7 -0.2
v 0.5 0.8 -0.2
v 0.5 1.2 -0.2
v 0.5 1.3 -0.2
v 0.4 0.6 -0.4
v 0.4 0.7 -0.4
v 0.5 0.6 -0.4
v 0.5 0.7 -0.4
v 0.4 0.7 -0.5
v 0.4 0.8 -0.5
v 0.5 0.7 -0.5
v 0.5 0.8 -0.5
v 0.4 0.8 -0.6
v 0.4 1 -0.6
v 0.5 0.8 -0.6
v 0.5 1 -0.6
v -0.4 0 0.5
v -0.2 0 0.5
v 0.2 0 0.5
v 0.4 0 0.5
v -0.5 0 0.4
v -0.4 0 0.4
v -0.2 0 0.4
v -0.1 0 0.4
v 0.1 0 0.4
v 0.2 0 0.4
v 0.4 0 0.4
v 0.5 0 0.4
v -0.5 0 -0.2
v -0.1 0 -0.2
v 0.1 0 -0.2
v 0.5 0 -0.2
v 0.4 0.6 -0.1
v 0.5 0.6 -0.1
v 0.4 0.6 -0.4
v 0.5 0.6 -0.4
v -0.2 0.7 0.2
v -0.1 0.7 0.2
v 0.1 0.7 0.2
v 0.2 0.7 0.2
v 0.4 0.7 0
v 0.5 0.7 0
v -0.2 0.7 -0.1
v -0.1 0.7 -0.1
v 0.1 0.7 -0.1
v 0.2 0.7 -0.1
v 0.4 0.7 -0.1
v 0.5 0.7 -0.1
v 0.4 0.7 -0.4
v 0.5 0.7 -0.4
v 0.4 0.7 -0.5
v 0.5 0.7 -0.5
v -0.1 0.8 0.2
v 0.1 0.8 0.2
v 0.4 0.8 0.1
v 0.5 0.8 0.1
v 0.4 0.8 0
v 0.5 0.8 0
v -0.1 0.8 -0.1
v 0.1 0.8 -0.1
v 0.4 0.8 -0.5
v 0.5 0.8 -0.5
v 0.4 0.8 -0.6
v 0.5 0.8 -0.6
v 0.4 0.9 0.2
v 0.5 0.9 0.2
v 0.4 0.9 0.1
v 0.5 0.9 0.1
v -0.6 1 0.2
v -0.4 1 0.2
v 0.5 1 0.2
v 0.6 1 0.2
v 0.5 1 0.1
v 0.6 1 0.1
v 0.4 1 0
v 0.5 1 0
v -0.6 1 -0.1
v -0.4 1 -0.1
v 0.4 1 -0.1
v 0.6 1 -0.1
v 0.4 1.1 0.3
v 0.5 1.1 0.3
v 0.4 1.1 0.2
v 0.5 1.1 0.2
v 0.4 1.2 0.4
v 0.5 1.2 0.4
v 0.4 1.2 0.3
v 0.5 1.2 0.3
v 0.4 1.2 -0.1
v 0.5 1.2 -0.1
v 0.4 1.2 -0.2
v 0.5 1.2 -0.2
v 0.4 1.3 0.5
v 0.5 1.3 0.5
v 0.4 1.3 0.4
v 0.5 1.3 0.4
v -0.4 1.3 0.2
v -0.2 1.3 0.2
v 0.2 1.3 0.2
v 0.4 1.3 0.2
v -0.4 1.3 -0.1
v -0.2 1.3 -0.1
v 0.2 1.3 -0.1
v 0.4 1.3 -0.1
v 0.4 1.4 0.6
v 0.5 1.4 0.6
v 0.4 1.4 0.5
v 0.5 1.4 0.5
v 0.4 1.5 0.7
v 0.5 1.5 0.7
v 0.4 1.5 0.6
v 0.5 1.5 0.6
v 0.5 1.6 0.7
v 0.6 1.6 0.7
v 0.5 1.6 0.6
v 0.6 1.6 0.6
v -0.4 0.2 0.5
v -0.2 0.2 0.5
v 0.2 0.2 0.5
v 0.4 0.2 0.5
v -0.4 0.2 0.4
v -0.2 0.2 0.4
v 0.2 0.2 0.4
v 0.4 0.2 0.4
v -0.5 0.3 0.4
v -0.1 0.3 0.4
v 0.1 0.3 0.4
v 0.5 0.3 0.4
v -0.4 0.3 0.2
v -0.2 0.3 0.2
v 0.2 0.3 0.2
v 0.4 0.3 0.2
v -0.4 0.3 0
v -0.4 0.3 -0.1
v -0.3 0.3 -0.1
v -0.2 0.3 -0.1
v 0.2 0.3 -0.1
v 0.4 0.3 -0.1
v -0.5 0.3 -0.2
v -0.1 0.3 -0.2
v 0.1 0.3 -0.2
v 0.5 0.3 -0.2
v 0.4 0.7 -0.2
v 0.5 0.7 -0.2
v 0.4 0.7 -0.4
v 0.5 0.7 -0.4
v 0.4 0.8 -0.1
v 0.5 0.8 -0.1
v 0.4 0.8 -0.2
v 0.5 0.8 -0.2
v 0.4 0.9 0
v 0.5 0.9 0
v 0.4 0.9 -0.1
v 0.5 0.9 -0.1
v 0.4 0.9 -0.4
v 0.5 0.9 -0.4
v 0.4 0.9 -0.5
v 0.5 0.9 -0.5
v -0.4 1 0.2
v -0.3 1 0.2
v 0.3 1 0.2
v 0.4 1 0.2
v -0.3 1 0
v -0.4 1 -0.1
v -0.3 1 -0.1
v 0.3 1 -0.1
v 0.4 1 -0.1
v 0.4 1 -0.5
v 0.5 1 -0.5
v 0.4 1 -0.6
v 0.5 1 -0.6
v -0.3 1.1 0.2
v -0.2 1.1 0.2
v 0.2 1.1 0.2
v 0.3 1.1 0.2
v -0.2 1.1 0.1
v -0.3 1.1 0
v -0.2 1.1 0
v -0.3 1.1 -0.1
v -0.2 1.1 -0.1
v 0.2 1.1 -0.1
v 0.3 1.1 -0.1
v 0.4 1.3 0.3
v 0.5 1.3 0.3
v 0.4 1.3 0.2
v 0.5 1.3 0.2
v 0.4 1.3 -0.1
v 0.5 1.3 -0.1
v 0.4 1.3 -0.2
v 0.5 1.3 -0.2
v 0.4 1.4 0.4
v 0.5 1.4 0.4
v 0.4 1.4 0.3
v 0.5 1.4 0.3
v 0.4 1.5 0.5
v 0.5 1.5 0.5
v 0.4 1.5 0.4
v 0.5 1.5 0.4
v -0.6 1.5 0.2
v -0.4 1.5 0.2
v 0.4 1.5 0.2
v 0.6 1.5 0.2
v -0.6 1.5 -0.1
v -0.4 1.5 -0.1
v 0.4 1.5 -0.1
v 0.6 1.5 -0.1
v 0.4 1.6 0.6
v 0.5 1.6 0.6
v 0.4 1.6 0.5
v 0.5 1.6 0.5
v -0.4 1.6 0.2
v -0.2 1.6 0.2
v 0.2 1.6 0.2
v 0.4 1.6 0.2
v -0.4 1.6 -0.1
v -0.2 1.6 -0.1
v 0.2 1.6 -0.1
v 0.4 1.6 -0.1
v 0.4 1.7 0.7
v 0.6 1.7 0.7
v 0.4 1.7 0.6
v 0.6 1.7 0.6
v -0.2 2 0.2
v 0.2 2 0.2
v -0.2 2 -0.1
v 0.2 2 -0.1

# faces
f 3/1/1 2/1/1 1/1/1
f 4/1/1 2/1/1 3/1/1
f 5/8/1 4/8/1 3/8/1
f 6/8/1 4/8/1 5/8/1
f 7/8/1 4/8/1 6/8/1
f 8/1/1 6/1/1 5/1/1
f 8/4/1 7/4/1 6/4/1
f 9/4/1 7/4/1 8/4/1
f 10/1/1 8/1/1 5/1/1
f 10/1/1 9/1/1 8/1/1
f 11/1/1 9/1/1 10/1/1
f 14/9/1 13/9/1 12/9/1
f 15/9/1 13/9/1 14/9/1
f 18/9/1 17/9/1 16/9/1
f 19/9/1 17/9/1 18/9/1
f 23/1/1 21/1/1 20/1/1
f 23/4/1 22/4/1 21/4/1
f 24/4/1 22/4/1 23/4/1
f 25/1/1 23/1/1 20/1/1
f 25/1/1 24/1/1 23/1/1
f 26/1/1 24/1/1 25/1/1
f 27/6/1 26/6/1 25/6/1
f 28/6/1 26/6/1 27/6/1
f 29/2/1 28/2/1 27/2/1
f 30/6/1 26/6/1 28/6/1
f 30/2/1 28/2/1 29/2/1
f 31/6/1 30/6/1 29/6/1
f 32/6/1 26/6/1 30/6/1
f 32/6/1 30/6/1 31/6/1
f 35/10/1 34/10/1 33/10/1
f 36/10/1 34/10/1 35/10/1
f 40/6/1 38/6/1 37/6/1
f 41/2/1 39/2/1 38/2/1
f 41/6/1 38/6/1 40/6/1
f 42/2/1 39/2/1 41/2/1
f 47/3/1 44/3/1 43/3/1
f 48/10/1 46/10/1 45/10/1
f 48/3/1 44/3/1 47/3/1
f 48/10/1 45/10/1 44/10/1
f 49/10/1 48/10/1 47/10/1
f 50/10/1 46/10/1 48/10/1
f 50/10/1 48/10/1 49/10/1
f 53/1/1 52/1/1 51/1/1
f 54/1/1 52/1/1 53/1/1
f 55/1/1 53/1/1 51/1/1
f 56/10/1 54/10/1 53/10/1
f 56/1/1 53/1/1 55/1/1
f 57/10/1 54/10/1 56/10/1
f 58/5/1 56/5/1 55/5/1
f 58/5/1 57/5/1 56/5/1
f 59/5/1 57/5/1 58/5/1
f 62/9/1 61/9/1 60/9/1
f 63/9/1 61/9/1 62/9/1
f 66/6/1 65/6/1 64/6/1
f 67/6/1 65/6/1 66/6/1
f 70/9/1 69/9/1 68/9/1
f 71/9/1 69/9/1 70/9/1
f 74/1/1 73/1/1 72/1/1
f 75/1/1 73/1/1 74/1/1
f 76/1/1 74/1/1 72/1/1
f 77/4/1 75/4/1 74/4/1
f 77/1/1 74/1/1 76/1/1
f 78/4/1 75/4/1 77/4/1
f 79/6/1 77/6/1 76/6/1
f 79/6/1 78/6/1 77/6/1
f 80/6/1 78/6/1 79/6/1
f 83/9/1 82/9/1 81/9/1
f 84/9/1 82/9/1 83/9/1
f 85/9/1 82/9/1 84/9/1
f 87/9/1 84/9/1 83/9/1
f 88/9/1 84/9/1 87/9/1
f 89/9/1 86/9/1 85/9/1
f 91/9/1 90/9/1 89/9/1
f 91/9/1 89/9/1 85/9/1
f 92/9/1 90/9/1 91/9/1
f 95/9/1 90/9/1 92/9/1
f 96/9/1 90/9/1 95/9/1
f 98/1/1 94/1/1 93/1/1
f 99/1/1 94/1/1 98/1/1
f 100/1/1 94/1/1 99/1/1
f 102/9/1 98/9/1 97/9/1
f 103/8/1 99/8/1 98/8/1
f 103/4/1 100/4/1 99/4/1
f 104/4/1 100/4/1 103/4/1
f 107/9/1 102/9/1 101/9/1
f 108/9/1 98/9/1 102/9/1
f 108/9/1 102/9/1 107/9/1
f 109/8/1 104/8/1 103/8/1
f 109/9/1 98/9/1 108/9/1
f 109/8/1 105/8/1 104/8/1
f 109/8/1 103/8/1 98/8/1
f 110/8/1 105/8/1 109/8/1
f 111/8/1 105/8/1 110/8/1
f 113/9/1 108/9/1 107/9/1
f 113/9/1 107/9/1 106/9/1
f 114/9/1 108/9/1 113/9/1
f 115/9/1 108/9/1 114/9/1
f 117/9/1 113/9/1 112/9/1
f 117/9/1 114/9/1 113/9/1
f 118/9/1 114/9/1 117/9/1
f 119/9/1 114/9/1 118/9/1
f 120/9/1 117/9/1 116/9/1
f 120/9/1 118/9/1 117/9/1
f 121/9/1 118/9/1 120/9/1
f 122/9/1 120/9/1 116/9/1
f 123/9/1 120/9/1 122/9/1
f 124/1/2 125/1/2 126/1/2
f 126/1/2 125/1/2 127/1/2
f 126/8/2 127/8/2 128/8/2
f 128/8/2 127/8/2 129/8/2
f 130/9/2 131/9/2 132/9/2
f 132/9/2 131/9/2 133/9/2
f 134/1/2 135/1/2 136/1/2
f 136/1/2 135/1/2 137/1/2
f 136/6/2 137/6/2 138/6/2
f 138/6/2 137/6/2 139/6/2
f 140/9/2 141/9/2 142/9/2
f 142/9/2 141/9/2 143/9/2
f 144/6/2 145/6/2 146/6/2
f 146/6/2 145/6/2 147/6/2
f 148/10/2 149/10/2 150/10/2
f 150/10/2 149/10/2 151/10/2
f 152/1/2 153/1/2 154/1/2
f 154/1/2 153/1/2 155/1/2
f 152/1/2 154/1/2 156/1/2
f 154/10/2 155/10/2 157/10/2
f 156/1/2 154/1/2 157/1/2
f 157/10/2 155/10/2 158/10/2
f 156/5/2 157/5/2 159/5/2
f 157/5/2 158/5/2 159/5/2
f 159/5/2 158/5/2 160/5/2
f 161/6/2 162/6/2 163/6/2
f 163/6/2 162/6/2 164/6/2
f 165/9/2 166/9/2 167/9/2
f 167/9/2 166/9/2 168/9/2
f 169/1/2 170/1/2 171/1/2
f 171/1/2 170/1/2 172/1/2
f 171/6/2 172/6/2 173/6/2
f 171/6/2 173/6/2 174/6/2
f 174/6/2 173/6/2 175/6/2
f 171/6/2 174/6/2 176/6/2
f 176/6/2 174/6/2 177/6/2
f 171/6/2 176/6/2 178/6/2
f 178/6/2 176/6/2 179/6/2
f 180/6/2 181/6/2 182/6/2
f 182/6/2 181/6/2 183/6/2
f 184/10/2 185/10/2 186/10/2
f 186/10/2 185/10/2 187/10/2
f 188/9/2 189/9/2 190/9/2
f 190/9/2 189/9/2 191/9/2
f 192/9/2 193/9/2 195/9/2
f 195/9/2 193/9/2 196/9/2
f 196/9/2 193/9/2 197/9/2
f 194/9/2 195/9/2 200/9/2
f 195/9/2 196/9/2 200/9/2
f 200/9/2 196/9/2 201/9/2
f 201/9/2 196/9/2 202/9/2
f 197/9/2 198/9/2 203/9/2
f 199/9/2 200/9/2 206/9/2
f 200/9/2 201/9/2 206/9/2
f 206/9/2 201/9/2 207/9/2
f 207/9/2 201/9/2 208/9/2
f 203/9/2 204/9/2 209/9/2
f 197/9/2 203/9/2 209/9/2
f 209/9/2 204/9/2 210/9/2
f 206/9/2 207/9/2 211/9/2
f 205/9/2 206/9/2 211/9/2
f 211/9/2 207/9/2 212/9/2
f 212/9/2 207/9/2 213/9/2
f 210/9/2 204/9/2 214/9/2
f 214/9/2 204/9/2 215/9/2
f 216/9/2 217/9/2 219/9/2
f 218/9/2 219/9/2 223/9/2
f 219/9/2 217/9/2 224/9/2
f 223/9/2 219/9/2 224/9/2
f 224/9/2 217/9/2 225/9/2
f 220/8/2 221/8/2 226/8/2
f 226/8/2 221/8/2 227/8/2
f 222/9/2 223/9/2 229/9/2
f 223/9/2 224/9/2 229/9/2
f 229/9/2 224/9/2 230/9/2
f 230/9/2 224/9/2 231/9/2
f 228/9/2 229/9/2 233/9/2
f 229/9/2 230/9/2 233/9/2
f 233/9/2 230/9/2 234/9/2
f 234/9/2 230/9/2 235/9/2
f 232/9/2 233/9/2 236/9/2
f 233/9/2 234/9/2 236/9/2
f 236/9/2 234/9/2 237/9/2
f 237/9/2 234/9/2 238/9/2
f 239/4/2 240/4/2 242/4/2
f 240/1/2 241/1/2 243/1/2
f 242/4/2 240/4/2 243/4/2
f 243/1/2 241/1/2 244/1/2
f 242/8/2 243/8/2 245/8/2
f 243/8/2 244/8/2 245/8/2
f 245/8/2 244/8/2 246/8/2
f 246/8/2 244/8/2 247/8/2
f 245/1/2 246/1/2 248/1/2
f 246/4/2 247/4/2 248/4/2
f 248/4/2 247/4/2 249/4/2
f 245/1/2 248/1/2 250/1/2
f 248/1/2 249/1/2 250/1/2
f 250/1/2 249/1/2 251/1/2
f 252/9/2 253/9/2 254/9/2
f 254/9/2 253/9/2 255/9/2
f 258/9/3 257/9/3 256/9/3
f 259/9/3 257/9/3 258/9/3
f 260/9/3 257/9/3 259/9/3
f 261/9/3 257/9/3 260/9/3
f 264/9/3 263/9/3 262/9/3
f 265/9/3 263/9/3 264/9/3
f 268/9/3 267/9/3 266/9/3
f 269/9/3 267/9/3 268/9/3
f 272/9/3 271/9/3 270/9/3
f 273/9/3 271/9/3 272/9/3
f 276/9/3 275/9/3 274/9/3
f 277/9/3 275/9/3 276/9/3
f 280/9/3 279/9/3 278/9/3
f 281/9/3 279/9/3 280/9/3
f 283/9/3 279/9/3 281/9/3
f 284/9/3 283/9/3 282/9/3
f 285/9/3 279/9/3 283/9/3
f 285/9/3 283/9/3 284/9/3
f 288/9/3 287/9/3 286/9/3
f 289/9/3 287/9/3 288/9/3
f 291/9/3 287/9/3 289/9/3
f 294/9/3 291/9/3 290/9/3
f 295/9/3 287/9/3 291/9/3
f 295/9/3 291/9/3 294/9/3
f 296/9/3 293/9/3 292/9/3
f 297/9/3 293/9/3 296/9/3
f 300/9/3 299/9/3 298/9/3
f 301/9/3 299/9/3 300/9/3
f 310/1/3 303/1/3 302/1/3
f 311/8/3 304/8/3 303/8/3
f 311/1/3 303/1/3 310/1/3
f 312/1/3 305/1/3 304/1/3
f 312/8/3 304/8/3 311/8/3
f 313/1/3 305/1/3 312/1/3
f 315/2/3 309/2/3 308/2/3
f 315/6/3 308/6/3 307/6/3
f 316/6/3 310/6/3 309/6/3
f 316/2/3 309/2/3 315/2/3
f 317/6/3 310/6/3 316/6/3
f 319/1/3 307/1/3 306/1/3
f 320/6/3 315/6/3 307/6/3
f 320/1/3 307/1/3 319/1/3
f 320/6/3 318/6/3 317/6/3
f 320/6/3 317/6/3 316/6/3
f 320/6/3 316/6/3 315/6/3
f 321/6/3 318/6/3 320/6/3
f 322/6/3 318/6/3 321/6/3
f 324/10/3 314/10/3 313/10/3
f 324/10/3 313/10/3 312/10/3
f 325/10/3 314/10/3 324/10/3
f 326/10/3 314/10/3 325/10/3
f 329/6/3 322/6/3 321/6/3
f 330/6/3 322/6/3 329/6/3
f 331/3/3 323/3/3 322/3/3
f 331/6/3 322/6/3 330/6/3
f 332/10/3 324/10/3 323/10/3
f 332/3/3 323/3/3 331/3/3
f 333/7/3 325/7/3 324/7/3
f 333/10/3 324/10/3 332/10/3
f 334/10/3 326/10/3 325/10/3
f 334/7/3 325/7/3 333/7/3
f 335/10/3 326/10/3 334/10/3
f 336/10/3 333/10/3 332/10/3
f 336/3/3 335/3/3 334/3/3
f 336/10/3 334/10/3 333/10/3
f 336/10/3 332/10/3 331/10/3
f 337/10/3 326/10/3 335/10/3
f 337/3/3 335/3/3 336/3/3
f 339/6/3 331/6/3 330/6/3
f 340/6/3 331/6/3 339/6/3
f 341/6/3 331/6/3 340/6/3
f 342/10/3 336/10/3 331/10/3
f 342/10/3 337/10/3 336/10/3
f 343/10/3 326/10/3 337/10/3
f 343/10/3 337/10/3 342/10/3
f 346/6/3 339/6/3 338/6/3
f 346/6/3 340/6/3 339/6/3
f 347/6/3 340/6/3 346/6/3
f 348/4/3 341/4/3 340/4/3
f 348/6/3 340/6/3 347/6/3
f 349/6/3 331/6/3 341/6/3
f 349/4/3 341/4/3 348/4/3
f 350/10/3 342/10/3 331/10/3
f 350/6/3 331/6/3 349/6/3
f 351/10/3 342/10/3 350/10/3
f 352/3/3 343/3/3 342/3/3
f 352/10/3 342/10/3 351/10/3
f 353/10/3 326/10/3 343/10/3
f 353/3/3 343/3/3 352/3/3
f 354/1/3 327/1/3 326/1/3
f 354/10/3 326/10/3 353/10/3
f 355/5/3 328/5/3 327/5/3
f 355/1/3 327/1/3 354/1/3
f 356/5/3 328/5/3 355/5/3
f 357/4/3 348/4/3 347/4/3
f 357/6/3 347/6/3 346/6/3
f 357/6/3 346/6/3 345/6/3
f 358/6/3 349/6/3 348/6/3
f 358/4/3 348/4/3 357/4/3
f 358/6/3 350/6/3 349/6/3
f 359/6/3 350/6/3 358/6/3
f 360/6/3 350/6/3 359/6/3
f 361/1/3 345/1/3 344/1/3
f 362/6/3 357/6/3 345/6/3
f 362/1/3 345/1/3 361/1/3
f 362/6/3 358/6/3 357/6/3
f 362/6/3 359/6/3 358/6/3
f 363/6/3 359/6/3 362/6/3
f 364/6/3 359/6/3 363/6/3
f 366/10/3 354/10/3 353/10/3
f 366/10/3 353/10/3 352/10/3
f 366/10/3 352/10/3 351/10/3
f 367/10/3 354/10/3 366/10/3
f 368/10/3 354/10/3 367/10/3
f 369/9/3 364/9/3 363/9/3
f 370/1/3 365/1/3 364/1/3
f 370/9/3 364/9/3 369/9/3
f 371/1/3 365/1/3 370/1/3
f 372/1/3 367/1/3 366/1/3
f 373/4/3 371/4/3 370/4/3
f 374/8/3 372/8/3 371/8/3
f 374/4/3 371/4/3 373/4/3
f 375/1/3 367/1/3 372/1/3
f 375/8/3 372/8/3 374/8/3
f 376/1/3 367/1/3 375/1/3
f 379/9/3 378/9/3 377/9/3
f 380/9/3 378/9/3 379/9/3
f 383/9/3 382/9/3 381/9/3
f 384/9/3 382/9/3 383/9/3
f 387/9/3 386/9/3 385/9/3
f 388/9/3 386/9/3 387/9/3
f 391/9/3 390/9/3 389/9/3
f 392/9/3 390/9/3 391/9/3
f 395/9/3 394/9/3 393/9/3
f 396/9/3 394/9/3 395/9/3
f 397/9/4 398/9/4 399/9/4
f 399/9/4 398/9/4 400/9/4
f 400/9/4 398/9/4 401/9/4
f 402/9/4 403/9/4 404/9/4
f 404/9/4 403/9/4 405/9/4
f 406/9/4 407/9/4 408/9/4
f 408/9/4 407/9/4 409/9/4
f 410/9/4 411/9/4 412/9/4
f 412/9/4 411/9/4 413/9/4
f 414/9/4 415/9/4 416/9/4
f 416/9/4 415/9/4 417/9/4
f 419/8/4 420/8/4 423/8/4
f 420/4/4 421/4/4 423/4/4
f 421/1/4 422/1/4 424/1/4
f 423/4/4 421/4/4 424/4/4
f 418/1/4 419/1/4 428/1/4
f 419/8/4 423/8/4 429/8/4
f 428/1/4 419/1/4 429/1/4
f 423/1/4 424/1/4 430/1/4
f 429/8/4 423/8/4 430/8/4
f 424/1/4 422/1/4 431/1/4
f 430/1/4 424/1/4 431/1/4
f 425/4/4 426/4/4 433/4/4
f 426/1/4 427/1/4 434/1/4
f 433/4/4 426/4/4 434/4/4
f 427/6/4 428/6/4 435/6/4
f 433/1/4 434/1/4 437/1/4
f 434/1/4 427/1/4 438/1/4
f 437/1/4 434/1/4 438/1/4
f 427/6/4 435/6/4 438/6/4
f 438/6/4 435/6/4 439/6/4
f 439/6/4 435/6/4 440/6/4
f 435/2/4 436/2/4 441/2/4
f 440/6/4 435/6/4 441/6/4
f 441/2/4 436/2/4 442/2/4
f 431/10/4 432/10/4 443/10/4
f 430/10/4 431/10/4 443/10/4
f 443/10/4 432/10/4 444/10/4
f 439/6/4 440/6/4 448/6/4
f 448/6/4 440/6/4 449/6/4
f 440/2/4 441/2/4 450/2/4
f 449/6/4 440/6/4 450/6/4
f 441/6/4 442/6/4 451/6/4
f 450/2/4 441/2/4 451/2/4
f 444/1/4 445/1/4 452/1/4
f 442/10/4 443/10/4 452/10/4
f 443/10/4 444/10/4 452/10/4
f 452/1/4 445/1/4 453/1/4
f 445/10/4 446/10/4 454/10/4
f 453/1/4 445/1/4 454/1/4
f 446/5/4 447/5/4 455/5/4
f 454/10/4 446/10/4 455/10/4
f 442/10/4 452/10/4 456/10/4
f 456/10/4 452/10/4 457/10/4
f 449/6/4 450/6/4 459/6/4
f 450/6/4 451/6/4 459/6/4
f 456/7/4 457/7/4 460/7/4
f 442/10/4 456/10/4 460/10/4
f 457/10/4 452/10/4 461/10/4
f 460/7/4 457/7/4 461/7/4
f 461/10/4 452/10/4 462/10/4
f 452/4/4 453/4/4 463/4/4
f 462/10/4 452/10/4 463/10/4
f 453/1/4 454/1/4 464/1/4
f 463/4/4 453/4/4 464/4/4
f 454/1/4 455/1/4 464/1/4
f 464/1/4 455/1/4 465/1/4
f 455/5/4 447/5/4 466/5/4
f 465/1/4 455/1/4 466/1/4
f 458/6/4 459/6/4 470/6/4
f 459/6/4 451/6/4 471/6/4
f 470/6/4 459/6/4 471/6/4
f 471/6/4 451/6/4 472/6/4
f 442/10/4 460/10/4 473/10/4
f 472/6/4 451/6/4 473/6/4
f 451/6/4 442/6/4 473/6/4
f 460/10/4 461/10/4 473/10/4
f 473/10/4 461/10/4 474/10/4
f 461/7/4 462/7/4 475/7/4
f 474/10/4 461/10/4 475/10/4
f 462/10/4 463/10/4 476/10/4
f 475/7/4 462/7/4 476/7/4
f 464/1/4 465/1/4 477/1/4
f 476/10/4 463/10/4 477/10/4
f 463/1/4 464/1/4 477/1/4
f 465/10/4 466/10/4 478/10/4
f 477/1/4 465/1/4 478/1/4
f 466/5/4 447/5/4 479/5/4
f 478/10/4 466/10/4 479/10/4
f 479/5/4 447/5/4 480/5/4
f 468/4/4 469/4/4 481/4/4
f 467/1/4 468/1/4 481/1/4
f 470/6/4 471/6/4 482/6/4
f 481/4/4 469/4/4 482/4/4
f 469/6/4 470/6/4 482/6/4
f 482/6/4 471/6/4 483/6/4
f 471/2/4 472/2/4 484/2/4
f 483/6/4 471/6/4 484/6/4
f 472/6/4 473/6/4 485/6/4
f 484/2/4 472/2/4 485/2/4
f 485/6/4 473/6/4 486/6/4
f 486/6/4 473/6/4 487/6/4
f 467/1/4 481/1/4 488/1/4
f 481/1/4 482/1/4 488/1/4
f 482/6/4 483/6/4 489/6/4
f 488/1/4 482/1/4 489/1/4
f 489/6/4 483/6/4 490/6/4
f 483/2/4 484/2/4 491/2/4
f 490/6/4 483/6/4 491/6/4
f 484/1/4 485/1/4 492/1/4
f 491/2/4 484/2/4 492/2/4
f 485/6/4 486/6/4 493/6/4
f 492/1/4 485/1/4 493/1/4
f 493/6/4 486/6/4 494/6/4
f 475/10/4 476/10/4 497/10/4
f 474/10/4 475/10/4 497/10/4
f 476/10/4 477/10/4 497/10/4
f 497/10/4 477/10/4 498/10/4
f 498/10/4 477/10/4 499/10/4
f 492/9/4 493/9/4 500/9/4
f 500/9/4 493/9/4 501/9/4
f 495/4/4 496/4/4 502/4/4
f 494/1/4 495/1/4 502/1/4
f 502/4/4 496/4/4 503/4/4
f 497/1/4 498/1/4 504/1/4
f 504/1/4 498/1/4 505/1/4
f 494/1/4 502/1/4 506/1/4
f 502/8/4 503/8/4 507/8/4
f 506/1/4 502/1/4 507/1/4
f 503/8/4 504/8/4 507/8/4
f 504/4/4 505/4/4 508/4/4
f 507/8/4 504/8/4 508/8/4
f 505/1/4 498/1/4 509/1/4
f 508/4/4 505/4/4 509/4/4
f 509/1/4 498/1/4 510/1/4
f 511/9/4 512/9/4 513/9/4
f 513/9/4 512/9/4 514/9/4
f 515/9/4 516/9/4 521/9/4
f 521/9/4 516/9/4 522/9/4
f 517/9/4 518/9/4 523/9/4
f 523/9/4 518/9/4 524/9/4
f 519/8/4 520/8/4 525/8/4
f 525/8/4 520/8/4 526/8/4
f 527/9/4 528/9/4 529/9/4
f 529/9/4 528/9/4 530/9/4
f 531/9/4 532/9/4 533/9/4
f 533/9/4 532/9/4 534/9/4
f 535/9/4 536/9/4 537/9/4
f 537/9/4 536/9/4 538/9/4
f 544/9/5 540/9/5 539/9/5
f 545/9/5 540/9/5 544/9/5
f 548/9/5 542/9/5 541/9/5
f 549/9/5 542/9/5 548/9/5
f 551/9/5 546/9/5 545/9/5
f 551/9/5 544/9/5 543/9/5
f 551/9/5 545/9/5 544/9/5
f 552/9/5 546/9/5 551/9/5
f 553/9/5 550/9/5 549/9/5
f 553/9/5 549/9/5 548/9/5
f 553/9/5 548/9/5 547/9/5
f 554/9/5 550/9/5 553/9/5
f 557/9/5 556/9/5 555/9/5
f 558/9/5 556/9/5 557/9/5
f 565/6/5 560/6/5 559/6/5
f 566/6/5 560/6/5 565/6/5
f 567/6/5 562/6/5 561/6/5
f 568/6/5 562/6/5 567/6/5
f 569/9/5 564/9/5 563/9/5
f 570/9/5 564/9/5 569/9/5
f 573/9/5 572/9/5 571/9/5
f 574/9/5 572/9/5 573/9/5
f 579/9/5 578/9/5 577/9/5
f 580/9/5 578/9/5 579/9/5
f 581/6/5 576/6/5 575/6/5
f 582/6/5 576/6/5 581/6/5
f 585/9/5 584/9/5 583/9/5
f 586/9/5 584/9/5 585/9/5
f 589/9/5 588/9/5 587/9/5
f 590/9/5 588/9/5 589/9/5
f 595/4/5 594/4/5 593/4/5
f 596/4/5 594/4/5 595/4/5
f 598/1/5 596/1/5 595/1/5
f 599/1/5 592/1/5 591/1/5
f 600/1/5 592/1/5 599/1/5
f 601/1/5 598/1/5 597/1/5
f 602/1/5 596/1/5 598/1/5
f 602/1/5 598/1/5 601/1/5
f 605/9/5 604/9/5 603/9/5
f 606/9/5 604/9/5 605/9/5
f 609/9/5 608/9/5 607/9/5
f 610/9/5 608/9/5 609/9/5
f 613/8/5 612/8/5 611/8/5
f 614/8/5 612/8/5 613/8/5
f 617/9/5 616/9/5 615/9/5
f 618/9/5 616/9/5 617/9/5
f 623/10/5 620/10/5 619/10/5
f 624/10/5 620/10/5 623/10/5
f 625/10/5 622/10/5 621/10/5
f 626/10/5 622/10/5 625/10/5
f 629/9/5 628/9/5 627/9/5
f 630/9/5 628/9/5 629/9/5
f 633/9/5 632/9/5 631/9/5
f 634/9/5 632/9/5 633/9/5
f 637/9/5 636/9/5 635/9/5
f 638/9/5 636/9/5 637/9/5
f 639/9/6 640/9/6 643/9/6
f 643/9/6 640/9/6 644/9/6
f 641/9/6 642/9/6 645/9/6
f 645/9/6 642/9/6 646/9/6
f 647/9/6 648/9/6 651/9/6
f 651/9/6 648/9/6 652/9/6
f 649/9/6 650/9/6 653/9/6
f 653/9/6 650/9/6 654/9/6
f 647/9/6 651/9/6 655/9/6
f 647/9/6 655/9/6 656/9/6
f 652/9/6 648/9/6 658/9/6
f 649/9/6 653/9/6 659/9/6
f 654/9/6 650/9/6 660/9/6
f 656/9/6 657/9/6 661/9/6
f 657/9/6 658/9/6 661/9/6
f 647/9/6 656/9/6 661/9/6
f 658/9/6 648/9/6 662/9/6
f 661/9/6 658/9/6 662/9/6
f 659/9/6 660/9/6 663/9/6
f 649/9/6 659/9/6 663/9/6
f 660/9/6 650/9/6 664/9/6
f 663/9/6 660/9/6 664/9/6
f 665/9/6 666/9/6 667/9/6
f 667/9/6 666/9/6 668/9/6
f 669/9/6 670/9/6 671/9/6
f 671/9/6 670/9/6 672/9/6
f 673/9/6 674/9/6 675/9/6
f 675/9/6 674/9/6 676/9/6
f 677/9/6 678/9/6 679/9/6
f 679/9/6 678/9/6 680/9/6
f 681/6/6 682/6/6 685/6/6
f 681/6/6 685/6/6 686/6/6
f 686/6/6 685/6/6 687/6/6
f 683/6/6 684/6/6 688/6/6
f 688/6/6 684/6/6 689/6/6
f 690/9/6 691/9/6 692/9/6
f 692/9/6 691/9/6 693/9/6
f 694/6/6 695/6/6 698/6/6
f 694/6/6 698/6/6 699/6/6
f 699/6/6 698/6/6 700/6/6
f 699/2/6 700/2/6 701/2/6
f 701/2/6 700/2/6 702/2/6
f 696/6/6 697/6/6 703/6/6
f 703/6/6 697/6/6 704/6/6
f 705/9/6 706/9/6 707/9/6
f 707/9/6 706/9/6 708/9/6
f 709/8/6 710/8/6 711/8/6
f 711/8/6 710/8/6 712/8/6
f 713/9/6 714/9/6 715/9/6
f 715/9/6 714/9/6 716/9/6
f 717/9/6 718/9/6 719/9/6
f 719/9/6 718/9/6 720/9/6
f 721/1/6 722/1/6 725/1/6
f 725/1/6 722/1/6 726/1/6
f 723/1/6 724/1/6 727/1/6
f 727/1/6 724/1/6 728/1/6
f 729/9/6 730/9/6 731/9/6
f 731/9/6 730/9/6 732/9/6
f 733/10/6 734/10/6 737/10/6
f 737/10/6 734/10/6 738/10/6
f 735/10/6 736/10/6 739/10/6
f 739/10/6 736/10/6 740/10/6
f 741/9/6 742/9/6 743/9/6
f 743/9/6 742/9/6 744/9/6
f 745/5/6 746/5/6 747/5/6
f 747/5/6 746/5/6 748/5/6
