# MagicaVoxel @ Ephtracy

# group
o 

# material
mtllib TA.mtl
usemtl palette

# normals
vn -1 0 0
vn 1 0 0
vn 0 0 1
vn 0 0 -1
vn 0 -1 0
vn 0 1 0

# texcoords
vt 0.0722656 0.5
vt 0.0761719 0.5
vt 0.212891 0.5
vt 0.958984 0.5

# verts
v -0.5 0.3 0.1
v -0.5 0.3 -0.2
v -0.5 0.4 0.1
v -0.5 0.4 -0.2
v -0.4 0.2 0.1
v -0.4 0.2 -0.3
v -0.4 0.3 0.2
v -0.4 0.3 0.1
v -0.4 0.3 -0.2
v -0.4 0.3 -0.3
v -0.4 0.4 0.2
v -0.4 0.4 0.1
v -0.4 0.4 -0.2
v -0.4 0.4 -0.3
v -0.4 0.5 0.1
v -0.4 0.5 -0.3
v -0.3 0.1 0.1
v -0.3 0.1 -0.2
v -0.3 0.2 0.2
v -0.3 0.2 0.1
v -0.3 0.2 -0.2
v -0.3 0.3 0.3
v -0.3 0.3 0.2
v -0.3 0.3 0.1
v -0.3 0.4 0.3
v -0.3 0.4 0.2
v -0.3 0.4 0.1
v -0.3 0.5 0.2
v -0.3 0.5 0.1
v -0.3 0.5 -0.2
v -0.3 0.6 0.1
v -0.3 0.6 -0.2
v -0.2 0 0.1
v -0.2 0 -0.1
v -0.2 0.1 0.2
v -0.2 0.1 0.1
v -0.2 0.1 -0.1
v -0.2 0.2 0.3
v -0.2 0.2 0.2
v -0.2 0.2 0.1
v -0.2 0.3 0.4
v -0.2 0.3 0.3
v -0.2 0.3 0.2
v -0.2 0.4 0.4
v -0.2 0.4 0.3
v -0.2 0.4 0.2
v -0.2 0.5 0.3
v -0.2 0.5 0.2
v -0.2 0.5 0.1
v -0.2 0.6 0.2
v -0.2 0.6 0.1
v -0.2 0.6 -0.1
v -0.2 0.7 0.1
v -0.2 0.7 -0.1
v -0.1 0.1 -0.1
v -0.1 0.1 -0.2
v -0.1 0.2 -0.1
v -0.1 0.2 -0.2
v -0.1 0.3 -0.2
v -0.1 0.3 -0.3
v -0.1 0.4 -0.2
v -0.1 0.4 -0.3
v -0.1 0.5 -0.1
v -0.1 0.5 -0.2
v -0.1 0.6 -0.1
v -0.1 0.6 -0.2
v 0 0.2 -0.2
v 0 0.2 -0.3
v 0 0.3 -0.2
v 0 0.3 -0.3
v 0 0.4 -0.2
v 0 0.4 -0.3
v 0 0.5 -0.2
v 0 0.5 -0.3
v -0.3 0.2 -0.2
v -0.3 0.2 -0.3
v -0.3 0.3 -0.2
v -0.3 0.3 -0.3
v -0.3 0.4 -0.2
v -0.3 0.4 -0.3
v -0.3 0.5 -0.2
v -0.3 0.5 -0.3
v -0.2 0.1 -0.1
v -0.2 0.1 -0.2
v -0.2 0.2 -0.1
v -0.2 0.2 -0.2
v -0.2 0.3 -0.2
v -0.2 0.3 -0.3
v -0.2 0.4 -0.2
v -0.2 0.4 -0.3
v -0.2 0.5 -0.1
v -0.2 0.5 -0.2
v -0.2 0.6 -0.1
v -0.2 0.6 -0.2
v -0.1 0 0.1
v -0.1 0 -0.1
v -0.1 0.1 0.2
v -0.1 0.1 0.1
v -0.1 0.1 -0.1
v -0.1 0.2 0.3
v -0.1 0.2 0.2
v -0.1 0.2 0.1
v -0.1 0.3 0.4
v -0.1 0.3 0.3
v -0.1 0.3 0.2
v -0.1 0.4 0.4
v -0.1 0.4 0.3
v -0.1 0.4 0.2
v -0.1 0.5 0.3
v -0.1 0.5 0.2
v -0.1 0.5 0.1
v -0.1 0.6 0.2
v -0.1 0.6 0.1
v -0.1 0.6 -0.1
v -0.1 0.7 0.1
v -0.1 0.7 -0.1
v 0 0.1 0.1
v 0 0.1 -0.2
v 0 0.2 0.2
v 0 0.2 0.1
v 0 0.2 -0.2
v 0 0.3 0.3
v 0 0.3 0.2
v 0 0.3 0.1
v 0 0.4 0.3
v 0 0.4 0.2
v 0 0.4 0.1
v 0 0.5 0.2
v 0 0.5 0.1
v 0 0.5 -0.2
v 0 0.6 0.1
v 0 0.6 -0.2
v 0.1 0.2 0.1
v 0.1 0.2 -0.3
v 0.1 0.3 0.2
v 0.1 0.3 0.1
v 0.1 0.3 -0.2
v 0.1 0.3 -0.3
v 0.1 0.4 0.2
v 0.1 0.4 0.1
v 0.1 0.4 -0.2
v 0.1 0.4 -0.3
v 0.1 0.5 0.1
v 0.1 0.5 -0.3
v 0.2 0.3 0.1
v 0.2 0.3 -0.2
v 0.2 0.4 0.1
v 0.2 0.4 -0.2
v -0.2 0.3 0.4
v -0.2 0.4 0.4
v -0.1 0.3 0.4
v -0.1 0.4 0.4
v -0.3 0.3 0.3
v -0.3 0.4 0.3
v -0.2 0.2 0.3
v -0.2 0.3 0.3
v -0.2 0.4 0.3
v -0.2 0.5 0.3
v -0.1 0.2 0.3
v -0.1 0.3 0.3
v -0.1 0.4 0.3
v -0.1 0.5 0.3
v 0 0.3 0.3
v 0 0.4 0.3
v -0.4 0.3 0.2
v -0.4 0.4 0.2
v -0.3 0.2 0.2
v -0.3 0.3 0.2
v -0.3 0.4 0.2
v -0.3 0.5 0.2
v -0.2 0.1 0.2
v -0.2 0.2 0.2
v -0.2 0.3 0.2
v -0.2 0.4 0.2
v -0.2 0.5 0.2
v -0.2 0.6 0.2
v -0.1 0.1 0.2
v -0.1 0.2 0.2
v -0.1 0.3 0.2
v -0.1 0.4 0.2
v -0.1 0.5 0.2
v -0.1 0.6 0.2
v 0 0.2 0.2
v 0 0.3 0.2
v 0 0.4 0.2
v 0 0.5 0.2
v 0.1 0.3 0.2
v 0.1 0.4 0.2
v -0.5 0.3 0.1
v -0.5 0.4 0.1
v -0.4 0.2 0.1
v -0.4 0.3 0.1
v -0.4 0.4 0.1
v -0.4 0.5 0.1
v -0.3 0.1 0.1
v -0.3 0.2 0.1
v -0.3 0.3 0.1
v -0.3 0.4 0.1
v -0.3 0.5 0.1
v -0.3 0.6 0.1
v -0.2 0 0.1
v -0.2 0.1 0.1
v -0.2 0.2 0.1
v -0.2 0.5 0.1
v -0.2 0.6 0.1
v -0.2 0.7 0.1
v -0.1 0 0.1
v -0.1 0.1 0.1
v -0.1 0.2 0.1
v -0.1 0.5 0.1
v -0.1 0.6 0.1
v -0.1 0.7 0.1
v 0 0.1 0.1
v 0 0.2 0.1
v 0 0.3 0.1
v 0 0.4 0.1
v 0 0.5 0.1
v 0 0.6 0.1
v 0.1 0.2 0.1
v 0.1 0.3 0.1
v 0.1 0.4 0.1
v 0.1 0.5 0.1
v 0.2 0.3 0.1
v 0.2 0.4 0.1
v -0.2 0 -0.1
v -0.2 0.1 -0.1
v -0.2 0.2 -0.1
v -0.2 0.5 -0.1
v -0.2 0.6 -0.1
v -0.2 0.7 -0.1
v -0.1 0 -0.1
v -0.1 0.1 -0.1
v -0.1 0.2 -0.1
v -0.1 0.5 -0.1
v -0.1 0.6 -0.1
v -0.1 0.7 -0.1
v -0.5 0.3 -0.2
v -0.5 0.4 -0.2
v -0.4 0.3 -0.2
v -0.4 0.4 -0.2
v -0.3 0.1 -0.2
v -0.3 0.2 -0.2
v -0.3 0.3 -0.2
v -0.3 0.4 -0.2
v -0.3 0.5 -0.2
v -0.3 0.6 -0.2
v -0.2 0.1 -0.2
v -0.2 0.2 -0.2
v -0.2 0.3 -0.2
v -0.2 0.4 -0.2
v -0.2 0.5 -0.2
v -0.2 0.6 -0.2
v -0.1 0.1 -0.2
v -0.1 0.2 -0.2
v -0.1 0.3 -0.2
v -0.1 0.4 -0.2
v -0.1 0.5 -0.2
v -0.1 0.6 -0.2
v 0 0.1 -0.2
v 0 0.2 -0.2
v 0 0.3 -0.2
v 0 0.4 -0.2
v 0 0.5 -0.2
v 0 0.6 -0.2
v 0.1 0.3 -0.2
v 0.1 0.4 -0.2
v 0.2 0.3 -0.2
v 0.2 0.4 -0.2
v -0.4 0.2 -0.3
v -0.4 0.3 -0.3
v -0.4 0.4 -0.3
v -0.4 0.5 -0.3
v -0.3 0.2 -0.3
v -0.3 0.3 -0.3
v -0.3 0.4 -0.3
v -0.3 0.5 -0.3
v -0.2 0.3 -0.3
v -0.2 0.4 -0.3
v -0.1 0.3 -0.3
v -0.1 0.4 -0.3
v 0 0.2 -0.3
v 0 0.3 -0.3
v 0 0.4 -0.3
v 0 0.5 -0.3
v 0.1 0.2 -0.3
v 0.1 0.3 -0.3
v 0.1 0.4 -0.3
v 0.1 0.5 -0.3
v -0.2 0 0.1
v -0.1 0 0.1
v -0.2 0 -0.1
v -0.1 0 -0.1
v -0.2 0.1 0.2
v -0.1 0.1 0.2
v -0.3 0.1 0.1
v -0.2 0.1 0.1
v -0.1 0.1 0.1
v 0 0.1 0.1
v -0.2 0.1 -0.1
v -0.1 0.1 -0.1
v -0.3 0.1 -0.2
v -0.2 0.1 -0.2
v -0.1 0.1 -0.2
v 0 0.1 -0.2
v -0.2 0.2 0.3
v -0.1 0.2 0.3
v -0.3 0.2 0.2
v -0.2 0.2 0.2
v -0.1 0.2 0.2
v 0 0.2 0.2
v -0.4 0.2 0.1
v -0.3 0.2 0.1
v -0.2 0.2 0.1
v -0.1 0.2 0.1
v 0 0.2 0.1
v 0.1 0.2 0.1
v -0.2 0.2 -0.1
v -0.1 0.2 -0.1
v -0.3 0.2 -0.2
v -0.2 0.2 -0.2
v -0.1 0.2 -0.2
v 0 0.2 -0.2
v -0.4 0.2 -0.3
v -0.3 0.2 -0.3
v 0 0.2 -0.3
v 0.1 0.2 -0.3
v -0.2 0.3 0.4
v -0.1 0.3 0.4
v -0.3 0.3 0.3
v -0.2 0.3 0.3
v -0.1 0.3 0.3
v 0 0.3 0.3
v -0.4 0.3 0.2
v -0.3 0.3 0.2
v -0.2 0.3 0.2
v -0.1 0.3 0.2
v 0 0.3 0.2
v 0.1 0.3 0.2
v -0.5 0.3 0.1
v -0.4 0.3 0.1
v -0.3 0.3 0.1
v 0 0.3 0.1
v 0.1 0.3 0.1
v 0.2 0.3 0.1
v -0.5 0.3 -0.2
v -0.4 0.3 -0.2
v -0.3 0.3 -0.2
v -0.2 0.3 -0.2
v -0.1 0.3 -0.2
v 0 0.3 -0.2
v 0.1 0.3 -0.2
v 0.2 0.3 -0.2
v -0.3 0.3 -0.3
v -0.2 0.3 -0.3
v -0.1 0.3 -0.3
v 0 0.3 -0.3
v -0.2 0.4 0.4
v -0.1 0.4 0.4
v -0.3 0.4 0.3
v -0.2 0.4 0.3
v -0.1 0.4 0.3
v 0 0.4 0.3
v -0.4 0.4 0.2
v -0.3 0.4 0.2
v -0.2 0.4 0.2
v -0.1 0.4 0.2
v 0 0.4 0.2
v 0.1 0.4 0.2
v -0.5 0.4 0.1
v -0.4 0.4 0.1
v -0.3 0.4 0.1
v 0 0.4 0.1
v 0.1 0.4 0.1
v 0.2 0.4 0.1
v -0.5 0.4 -0.2
v -0.4 0.4 -0.2
v -0.3 0.4 -0.2
v -0.2 0.4 -0.2
v -0.1 0.4 -0.2
v 0 0.4 -0.2
v 0.1 0.4 -0.2
v 0.2 0.4 -0.2
v -0.3 0.4 -0.3
v -0.2 0.4 -0.3
v -0.1 0.4 -0.3
v 0 0.4 -0.3
v -0.2 0.5 0.3
v -0.1 0.5 0.3
v -0.3 0.5 0.2
v -0.2 0.5 0.2
v -0.1 0.5 0.2
v 0 0.5 0.2
v -0.4 0.5 0.1
v -0.3 0.5 0.1
v -0.2 0.5 0.1
v -0.1 0.5 0.1
v 0 0.5 0.1
v 0.1 0.5 0.1
v -0.2 0.5 -0.1
v -0.1 0.5 -0.1
v -0.3 0.5 -0.2
v -0.2 0.5 -0.2
v -0.1 0.5 -0.2
v 0 0.5 -0.2
v -0.4 0.5 -0.3
v -0.3 0.5 -0.3
v 0 0.5 -0.3
v 0.1 0.5 -0.3
v -0.2 0.6 0.2
v -0.1 0.6 0.2
v -0.3 0.6 0.1
v -0.2 0.6 0.1
v -0.1 0.6 0.1
v 0 0.6 0.1
v -0.2 0.6 -0.1
v -0.1 0.6 -0.1
v -0.3 0.6 -0.2
v -0.2 0.6 -0.2
v -0.1 0.6 -0.2
v 0 0.6 -0.2
v -0.2 0.7 0.1
v -0.1 0.7 0.1
v -0.2 0.7 -0.1
v -0.1 0.7 -0.1

# faces
f 3/4/1 2/4/1 1/4/1
f 4/4/1 2/4/1 3/4/1
f 8/2/1 6/2/1 5/2/1
f 9/2/1 6/2/1 8/2/1
f 10/2/1 6/2/1 9/2/1
f 11/4/1 8/4/1 7/4/1
f 12/4/1 8/4/1 11/4/1
f 13/4/1 10/4/1 9/4/1
f 14/4/1 10/4/1 13/4/1
f 15/1/1 13/1/1 12/1/1
f 15/1/1 14/1/1 13/1/1
f 16/1/1 14/1/1 15/1/1
f 20/2/1 18/2/1 17/2/1
f 21/2/1 18/2/1 20/2/1
f 23/3/1 20/3/1 19/3/1
f 24/3/1 20/3/1 23/3/1
f 25/4/1 23/4/1 22/4/1
f 26/4/1 23/4/1 25/4/1
f 28/1/1 27/1/1 26/1/1
f 29/1/1 27/1/1 28/1/1
f 31/1/1 30/1/1 29/1/1
f 32/1/1 30/1/1 31/1/1
f 36/2/1 34/2/1 33/2/1
f 37/2/1 34/2/1 36/2/1
f 39/3/1 36/3/1 35/3/1
f 40/3/1 36/3/1 39/3/1
f 42/3/1 39/3/1 38/3/1
f 43/3/1 39/3/1 42/3/1
f 44/4/1 42/4/1 41/4/1
f 45/4/1 42/4/1 44/4/1
f 47/1/1 46/1/1 45/1/1
f 48/1/1 46/1/1 47/1/1
f 50/1/1 49/1/1 48/1/1
f 51/1/1 49/1/1 50/1/1
f 53/1/1 52/1/1 51/1/1
f 54/1/1 52/1/1 53/1/1
f 57/2/1 56/2/1 55/2/1
f 58/2/1 56/2/1 57/2/1
f 61/1/1 60/1/1 59/1/1
f 62/1/1 60/1/1 61/1/1
f 65/1/1 64/1/1 63/1/1
f 66/1/1 64/1/1 65/1/1
f 69/2/1 68/2/1 67/2/1
f 70/2/1 68/2/1 69/2/1
f 73/1/1 72/1/1 71/1/1
f 74/1/1 72/1/1 73/1/1
f 75/2/2 76/2/2 77/2/2
f 77/2/2 76/2/2 78/2/2
f 79/1/2 80/1/2 81/1/2
f 81/1/2 80/1/2 82/1/2
f 83/2/2 84/2/2 85/2/2
f 85/2/2 84/2/2 86/2/2
f 87/1/2 88/1/2 89/1/2
f 89/1/2 88/1/2 90/1/2
f 91/1/2 92/1/2 93/1/2
f 93/1/2 92/1/2 94/1/2
f 95/2/2 96/2/2 98/2/2
f 98/2/2 96/2/2 99/2/2
f 97/3/2 98/3/2 101/3/2
f 101/3/2 98/3/2 102/3/2
f 100/3/2 101/3/2 104/3/2
f 104/3/2 101/3/2 105/3/2
f 103/4/2 104/4/2 106/4/2
f 106/4/2 104/4/2 107/4/2
f 107/1/2 108/1/2 109/1/2
f 109/1/2 108/1/2 110/1/2
f 110/1/2 111/1/2 112/1/2
f 112/1/2 111/1/2 113/1/2
f 113/1/2 114/1/2 115/1/2
f 115/1/2 114/1/2 116/1/2
f 117/2/2 118/2/2 120/2/2
f 120/2/2 118/2/2 121/2/2
f 119/3/2 120/3/2 123/3/2
f 123/3/2 120/3/2 124/3/2
f 122/4/2 123/4/2 125/4/2
f 125/4/2 123/4/2 126/4/2
f 126/1/2 127/1/2 128/1/2
f 128/1/2 127/1/2 129/1/2
f 129/1/2 130/1/2 131/1/2
f 131/1/2 130/1/2 132/1/2
f 133/2/2 134/2/2 136/2/2
f 136/2/2 134/2/2 137/2/2
f 137/2/2 134/2/2 138/2/2
f 135/4/2 136/4/2 139/4/2
f 139/4/2 136/4/2 140/4/2
f 137/4/2 138/4/2 141/4/2
f 141/4/2 138/4/2 142/4/2
f 140/1/2 141/1/2 143/1/2
f 141/1/2 142/1/2 143/1/2
f 143/1/2 142/1/2 144/1/2
f 145/4/2 146/4/2 147/4/2
f 147/4/2 146/4/2 148/4/2
f 151/4/3 150/4/3 149/4/3
f 152/4/3 150/4/3 151/4/3
f 156/4/3 154/4/3 153/4/3
f 157/4/3 154/4/3 156/4/3
f 159/3/3 156/3/3 155/3/3
f 160/3/3 156/3/3 159/3/3
f 161/1/3 158/1/3 157/1/3
f 162/1/3 158/1/3 161/1/3
f 163/4/3 161/4/3 160/4/3
f 164/4/3 161/4/3 163/4/3
f 168/4/3 166/4/3 165/4/3
f 169/4/3 166/4/3 168/4/3
f 172/3/3 168/3/3 167/3/3
f 173/3/3 168/3/3 172/3/3
f 174/1/3 170/1/3 169/1/3
f 175/1/3 170/1/3 174/1/3
f 177/3/3 172/3/3 171/3/3
f 178/3/3 172/3/3 177/3/3
f 181/1/3 176/1/3 175/1/3
f 182/1/3 176/1/3 181/1/3
f 183/3/3 179/3/3 178/3/3
f 184/3/3 179/3/3 183/3/3
f 185/1/3 181/1/3 180/1/3
f 186/1/3 181/1/3 185/1/3
f 187/4/3 185/4/3 184/4/3
f 188/4/3 185/4/3 187/4/3
f 192/4/3 190/4/3 189/4/3
f 193/4/3 190/4/3 192/4/3
f 196/2/3 192/2/3 191/2/3
f 197/2/3 192/2/3 196/2/3
f 198/1/3 194/1/3 193/1/3
f 199/1/3 194/1/3 198/1/3
f 202/2/3 196/2/3 195/2/3
f 203/2/3 196/2/3 202/2/3
f 204/1/3 200/1/3 199/1/3
f 205/1/3 200/1/3 204/1/3
f 207/2/3 202/2/3 201/2/3
f 208/2/3 202/2/3 207/2/3
f 211/1/3 206/1/3 205/1/3
f 212/1/3 206/1/3 211/1/3
f 213/2/3 209/2/3 208/2/3
f 214/2/3 209/2/3 213/2/3
f 217/1/3 211/1/3 210/1/3
f 218/1/3 211/1/3 217/1/3
f 219/2/3 215/2/3 214/2/3
f 220/2/3 215/2/3 219/2/3
f 221/1/3 217/1/3 216/1/3
f 222/1/3 217/1/3 221/1/3
f 223/4/3 221/4/3 220/4/3
f 224/4/3 221/4/3 223/4/3
f 225/2/4 226/2/4 231/2/4
f 226/2/4 227/2/4 231/2/4
f 231/2/4 227/2/4 232/2/4
f 232/2/4 227/2/4 233/2/4
f 229/1/4 230/1/4 234/1/4
f 228/1/4 229/1/4 234/1/4
f 234/1/4 230/1/4 235/1/4
f 235/1/4 230/1/4 236/1/4
f 237/4/4 238/4/4 239/4/4
f 239/4/4 238/4/4 240/4/4
f 242/2/4 243/2/4 247/2/4
f 241/2/4 242/2/4 247/2/4
f 247/2/4 243/2/4 248/2/4
f 248/2/4 243/2/4 249/2/4
f 245/1/4 246/1/4 250/1/4
f 244/1/4 245/1/4 250/1/4
f 250/1/4 246/1/4 251/1/4
f 251/1/4 246/1/4 252/1/4
f 248/2/4 249/2/4 254/2/4
f 249/2/4 250/2/4 254/2/4
f 254/2/4 250/2/4 255/2/4
f 250/1/4 251/1/4 256/1/4
f 255/2/4 250/2/4 256/2/4
f 256/1/4 251/1/4 257/1/4
f 254/2/4 255/2/4 259/2/4
f 253/2/4 254/2/4 259/2/4
f 259/2/4 255/2/4 260/2/4
f 260/2/4 255/2/4 261/2/4
f 257/1/4 258/1/4 262/1/4
f 256/1/4 257/1/4 262/1/4
f 262/1/4 258/1/4 263/1/4
f 263/1/4 258/1/4 264/1/4
f 265/4/4 266/4/4 267/4/4
f 267/4/4 266/4/4 268/4/4
f 269/2/4 270/2/4 273/2/4
f 270/4/4 271/4/4 274/4/4
f 273/2/4 270/2/4 274/2/4
f 271/1/4 272/1/4 275/1/4
f 274/4/4 271/4/4 275/4/4
f 275/1/4 272/1/4 276/1/4
f 274/1/4 275/1/4 277/1/4
f 277/1/4 275/1/4 278/1/4
f 279/1/4 280/1/4 282/1/4
f 282/1/4 280/1/4 283/1/4
f 281/2/4 282/2/4 285/2/4
f 282/4/4 283/4/4 286/4/4
f 285/2/4 282/2/4 286/2/4
f 283/1/4 284/1/4 287/1/4
f 286/4/4 283/4/4 287/4/4
f 287/1/4 284/1/4 288/1/4
f 291/2/5 290/2/5 289/2/5
f 292/2/5 290/2/5 291/2/5
f 296/3/5 294/3/5 293/3/5
f 297/3/5 294/3/5 296/3/5
f 299/2/5 296/2/5 295/2/5
f 300/2/5 298/2/5 297/2/5
f 301/2/5 299/2/5 295/2/5
f 302/2/5 299/2/5 301/2/5
f 303/2/5 298/2/5 300/2/5
f 304/2/5 298/2/5 303/2/5
f 308/3/5 306/3/5 305/3/5
f 309/3/5 306/3/5 308/3/5
f 312/3/5 308/3/5 307/3/5
f 313/3/5 308/3/5 312/3/5
f 314/3/5 310/3/5 309/3/5
f 315/3/5 310/3/5 314/3/5
f 319/2/5 312/2/5 311/2/5
f 320/2/5 318/2/5 317/2/5
f 321/2/5 318/2/5 320/2/5
f 322/2/5 316/2/5 315/2/5
f 323/2/5 319/2/5 311/2/5
f 324/2/5 319/2/5 323/2/5
f 325/2/5 316/2/5 322/2/5
f 326/2/5 316/2/5 325/2/5
f 330/4/5 328/4/5 327/4/5
f 331/4/5 328/4/5 330/4/5
f 334/4/5 330/4/5 329/4/5
f 335/4/5 330/4/5 334/4/5
f 336/4/5 332/4/5 331/4/5
f 337/4/5 332/4/5 336/4/5
f 340/4/5 334/4/5 333/4/5
f 341/4/5 334/4/5 340/4/5
f 342/4/5 338/4/5 337/4/5
f 343/4/5 338/4/5 342/4/5
f 345/4/5 340/4/5 339/4/5
f 346/4/5 340/4/5 345/4/5
f 351/4/5 344/4/5 343/4/5
f 352/4/5 344/4/5 351/4/5
f 353/1/5 348/1/5 347/1/5
f 354/1/5 348/1/5 353/1/5
f 355/1/5 350/1/5 349/1/5
f 356/1/5 350/1/5 355/1/5
f 357/4/6 358/4/6 360/4/6
f 360/4/6 358/4/6 361/4/6
f 359/4/6 360/4/6 364/4/6
f 364/4/6 360/4/6 365/4/6
f 361/4/6 362/4/6 366/4/6
f 366/4/6 362/4/6 367/4/6
f 363/4/6 364/4/6 370/4/6
f 370/4/6 364/4/6 371/4/6
f 367/4/6 368/4/6 372/4/6
f 372/4/6 368/4/6 373/4/6
f 369/4/6 370/4/6 375/4/6
f 375/4/6 370/4/6 376/4/6
f 373/4/6 374/4/6 381/4/6
f 381/4/6 374/4/6 382/4/6
f 377/1/6 378/1/6 383/1/6
f 383/1/6 378/1/6 384/1/6
f 379/1/6 380/1/6 385/1/6
f 385/1/6 380/1/6 386/1/6
f 387/1/6 388/1/6 390/1/6
f 390/1/6 388/1/6 391/1/6
f 389/1/6 390/1/6 394/1/6
f 394/1/6 390/1/6 395/1/6
f 391/1/6 392/1/6 396/1/6
f 396/1/6 392/1/6 397/1/6
f 393/1/6 394/1/6 401/1/6
f 399/1/6 400/1/6 402/1/6
f 402/1/6 400/1/6 403/1/6
f 397/1/6 398/1/6 404/1/6
f 393/1/6 401/1/6 405/1/6
f 405/1/6 401/1/6 406/1/6
f 404/1/6 398/1/6 407/1/6
f 407/1/6 398/1/6 408/1/6
f 409/1/6 410/1/6 412/1/6
f 412/1/6 410/1/6 413/1/6
f 411/1/6 412/1/6 415/1/6
f 413/1/6 414/1/6 416/1/6
f 411/1/6 415/1/6 417/1/6
f 417/1/6 415/1/6 418/1/6
f 416/1/6 414/1/6 419/1/6
f 419/1/6 414/1/6 420/1/6
f 421/1/6 422/1/6 423/1/6
f 423/1/6 422/1/6 424/1/6
